<svg xmlns="http://www.w3.org/2000/svg" xmlns:xlink="http://www.w3.org/1999/xlink" width="200" zoomAndPan="magnify" viewBox="0 0 150 56.249996" height="75" preserveAspectRatio="xMidYMid meet" version="1.0"><defs><g/><clipPath id="357210a922"><path d="M 4 3 L 51 3 L 51 51 L 4 51 Z M 4 3 " clip-rule="nonzero"/></clipPath><clipPath id="a9ccd56989"><path d="M 9.628906 -0.589844 L 55.089844 9.460938 L 45.039062 54.917969 L -0.421875 44.867188 Z M 9.628906 -0.589844 " clip-rule="nonzero"/></clipPath><clipPath id="5546c79111"><path d="M 32.359375 4.433594 C 19.808594 1.660156 7.378906 9.585938 4.605469 22.136719 C 1.828125 34.691406 9.753906 47.117188 22.308594 49.894531 C 34.863281 52.667969 47.289062 44.742188 50.0625 32.1875 C 52.839844 19.636719 44.914062 7.210938 32.359375 4.433594 Z M 32.359375 4.433594 " clip-rule="nonzero"/></clipPath><clipPath id="7924307f4b"><path d="M 0 0 L 47 0 L 47 48 L 0 48 Z M 0 0 " clip-rule="nonzero"/></clipPath><clipPath id="6f3ac2907f"><path d="M 5.628906 -3.589844 L 51.089844 6.460938 L 41.039062 51.917969 L -4.421875 41.867188 Z M 5.628906 -3.589844 " clip-rule="nonzero"/></clipPath><clipPath id="f245a2e08c"><path d="M 28.359375 1.433594 C 15.808594 -1.339844 3.378906 6.585938 0.605469 19.136719 C -2.171875 31.691406 5.753906 44.117188 18.308594 46.894531 C 30.863281 49.667969 43.289062 41.742188 46.0625 29.1875 C 48.839844 16.636719 40.914062 4.210938 28.359375 1.433594 Z M 28.359375 1.433594 " clip-rule="nonzero"/></clipPath><clipPath id="1dbb755b7c"><rect x="0" width="47" y="0" height="48"/></clipPath><clipPath id="aa334811eb"><path d="M 5 4 L 50 4 L 50 50 L 5 50 Z M 5 4 " clip-rule="nonzero"/></clipPath><clipPath id="ed49f132da"><path d="M 49.957031 48.578125 L 6.316406 50.148438 L 4.722656 5.769531 L 48.363281 4.199219 Z M 49.957031 48.578125 " clip-rule="nonzero"/></clipPath><clipPath id="80b0ab0ba8"><path d="M 49.957031 48.578125 L 6.316406 50.148438 L 4.722656 5.769531 L 48.363281 4.199219 Z M 49.957031 48.578125 " clip-rule="nonzero"/></clipPath><clipPath id="af4666fde9"><path d="M 6 6 L 48 6 L 48 48 L 6 48 Z M 6 6 " clip-rule="nonzero"/></clipPath><clipPath id="9832e9f9da"><path d="M 4.476562 45.148438 L 9.34375 4.296875 L 50.195312 9.164062 L 45.328125 50.019531 Z M 4.476562 45.148438 " clip-rule="nonzero"/></clipPath><clipPath id="051ffa7094"><path d="M 6.910156 24.722656 C 5.566406 36.003906 13.621094 46.238281 24.902344 47.582031 C 36.183594 48.929688 46.417969 40.871094 47.761719 29.589844 C 49.105469 18.3125 41.050781 8.074219 29.769531 6.730469 C 18.488281 5.386719 8.253906 13.441406 6.910156 24.722656 Z M 6.910156 24.722656 " clip-rule="nonzero"/></clipPath><clipPath id="ee8a5dea6d"><path d="M 0 0 L 42 0 L 42 42 L 0 42 Z M 0 0 " clip-rule="nonzero"/></clipPath><clipPath id="cf75af02f9"><path d="M -1.523438 39.148438 L 3.34375 -1.703125 L 44.195312 3.164062 L 39.328125 44.019531 Z M -1.523438 39.148438 " clip-rule="nonzero"/></clipPath><clipPath id="de22163b8b"><path d="M 0.910156 18.722656 C -0.433594 30.003906 7.621094 40.238281 18.902344 41.582031 C 30.183594 42.929688 40.417969 34.871094 41.761719 23.589844 C 43.105469 12.3125 35.050781 2.074219 23.769531 0.730469 C 12.488281 -0.613281 2.253906 7.441406 0.910156 18.722656 Z M 0.910156 18.722656 " clip-rule="nonzero"/></clipPath><clipPath id="e14a816735"><rect x="0" width="42" y="0" height="42"/></clipPath></defs><g fill="#000000" fill-opacity="1"><g transform="translate(50.586803, 20.31261)"><g><path d="M 7.8125 -10.953125 C 6.269531 -11.347656 4.84375 -11.425781 3.53125 -11.1875 C 3.15625 -11.113281 2.914062 -11.253906 2.8125 -11.609375 L 2.703125 -11.984375 L 2.578125 -12.6875 L 2.453125 -13.40625 C 2.347656 -13.96875 2.210938 -14.429688 2.046875 -14.796875 C 1.953125 -15.003906 2.03125 -15.113281 2.28125 -15.125 L 2.765625 -15.140625 L 3.265625 -15.15625 C 3.628906 -15.175781 3.945312 -15.226562 4.21875 -15.3125 L 4.4375 -15.375 C 4.519531 -15.40625 4.554688 -15.46875 4.546875 -15.5625 C 4.535156 -15.644531 4.484375 -15.703125 4.390625 -15.734375 L 4.28125 -15.75 L 4.171875 -15.75 L 0.734375 -15.875 C 0.578125 -15.875 0.414062 -15.785156 0.25 -15.609375 C 0.0820312 -15.429688 0 -15.257812 0 -15.09375 L 0.03125 -13.875 L 0.046875 -12.65625 C 0.0664062 -11.6875 0.0625 -10.867188 0.03125 -10.203125 C 0.0078125 -9.578125 0.0195312 -8.84375 0.0625 -8 L 0.125 -6.90625 L 0.203125 -5.8125 C 0.316406 -3.988281 0.300781 -2.523438 0.15625 -1.421875 C 0.0820312 -0.984375 0.257812 -0.609375 0.6875 -0.296875 C 1.113281 0.00390625 1.535156 0.078125 1.953125 -0.078125 C 2.796875 -0.421875 4.046875 -0.644531 5.703125 -0.75 L 6.421875 -0.78125 C 6.703125 -0.800781 6.941406 -0.859375 7.140625 -0.953125 L 7.203125 -0.984375 L 7.28125 -1.046875 C 7.332031 -1.085938 7.351562 -1.140625 7.34375 -1.203125 C 7.320312 -1.265625 7.285156 -1.3125 7.234375 -1.34375 C 7.171875 -1.382812 7.113281 -1.398438 7.0625 -1.390625 C 6.851562 -1.347656 6.617188 -1.335938 6.359375 -1.359375 L 5.640625 -1.421875 C 5.046875 -1.484375 4.578125 -1.460938 4.234375 -1.359375 C 3.953125 -1.265625 3.875 -1.363281 4 -1.65625 C 4.195312 -2.125 4.273438 -2.617188 4.234375 -3.140625 L 4.140625 -4.859375 L 4.078125 -5.953125 C 4.035156 -6.367188 3.957031 -6.71875 3.84375 -7 C 3.664062 -7.414062 3.535156 -7.894531 3.453125 -8.4375 L 3.359375 -9.171875 L 3.296875 -9.90625 C 3.273438 -10.132812 3.367188 -10.253906 3.578125 -10.265625 C 3.816406 -10.265625 4.164062 -10.285156 4.625 -10.328125 L 5.15625 -10.375 L 5.671875 -10.40625 L 6.734375 -10.40625 C 7.148438 -10.40625 7.503906 -10.441406 7.796875 -10.515625 C 7.953125 -10.566406 8.035156 -10.628906 8.046875 -10.703125 C 8.066406 -10.785156 8.046875 -10.847656 7.984375 -10.890625 L 7.90625 -10.9375 Z M 7.8125 -10.953125 "/></g></g></g><g fill="#000000" fill-opacity="1"><g transform="translate(60.367073, 20.31261)"><g><path d="M 1.734375 -11.78125 C 2.703125 -11.863281 3.351562 -11.46875 3.6875 -10.59375 C 4.582031 -8.289062 5.234375 -6.515625 5.640625 -5.265625 C 5.734375 -4.972656 5.890625 -4.613281 6.109375 -4.1875 L 6.375 -3.671875 L 6.640625 -3.140625 L 6.875 -2.546875 L 7.09375 -1.953125 L 7.171875 -1.765625 L 7.25 -1.84375 L 7.3125 -1.953125 L 7.71875 -3.125 L 8.171875 -4.28125 C 8.523438 -5.238281 8.78125 -6.023438 8.9375 -6.640625 C 9.050781 -7.117188 9.304688 -7.753906 9.703125 -8.546875 L 10.15625 -9.484375 C 10.320312 -9.835938 10.445312 -10.160156 10.53125 -10.453125 C 10.5625 -10.546875 10.609375 -10.617188 10.671875 -10.671875 C 10.742188 -10.734375 10.820312 -10.742188 10.90625 -10.703125 C 11.09375 -10.640625 11.132812 -10.484375 11.03125 -10.234375 C 10.445312 -8.835938 9.863281 -7.195312 9.28125 -5.3125 L 8.9375 -4.140625 L 8.59375 -2.953125 C 8.3125 -2.023438 8.039062 -1.242188 7.78125 -0.609375 C 7.582031 -0.117188 7.148438 0.453125 6.484375 1.109375 C 6.359375 1.242188 6.195312 1.285156 6 1.234375 C 5.851562 1.210938 5.679688 1.132812 5.484375 1 C 5.191406 0.820312 4.941406 0.539062 4.734375 0.15625 L 4.484375 -0.34375 L 4.234375 -0.859375 C 3.210938 -2.828125 2.410156 -4.578125 1.828125 -6.109375 C 1.066406 -8.097656 0.5 -9.617188 0.125 -10.671875 C 0.0703125 -10.804688 0.109375 -10.9375 0.234375 -11.0625 L 0.421875 -11.1875 L 0.59375 -11.3125 C 0.96875 -11.613281 1.347656 -11.769531 1.734375 -11.78125 Z M 1.734375 -11.78125 "/></g></g></g><g fill="#000000" fill-opacity="1"><g transform="translate(72.831788, 20.31261)"><g><path d="M 3.6875 -7.453125 C 3.75 -7.628906 3.816406 -7.847656 3.890625 -8.109375 L 4.046875 -8.796875 C 4.171875 -9.335938 4.347656 -9.757812 4.578125 -10.0625 L 4.625 -10.125 L 4.640625 -10.171875 C 4.691406 -10.679688 4.894531 -10.957031 5.25 -11 C 5.46875 -11.019531 5.710938 -10.925781 5.984375 -10.71875 C 6.253906 -10.519531 6.421875 -10.304688 6.484375 -10.078125 L 6.546875 -9.875 L 6.609375 -9.640625 C 6.640625 -9.460938 6.65625 -9.289062 6.65625 -9.125 C 6.457031 -8.488281 6.03125 -7.992188 5.375 -7.640625 C 5.175781 -7.535156 4.941406 -7.453125 4.671875 -7.390625 L 3.921875 -7.265625 C 3.816406 -7.242188 3.75 -7.242188 3.71875 -7.265625 C 3.664062 -7.285156 3.65625 -7.347656 3.6875 -7.453125 Z M 9.71875 -5.40625 C 9.613281 -5.488281 9.519531 -5.492188 9.4375 -5.421875 L 9.328125 -5.3125 L 9.234375 -5.203125 L 8.8125 -4.734375 L 8.40625 -4.25 C 8.070312 -3.894531 7.75 -3.625 7.4375 -3.4375 L 7.09375 -3.21875 L 6.734375 -3.03125 C 6.441406 -2.894531 6.175781 -2.863281 5.9375 -2.9375 C 5.320312 -3.113281 4.773438 -3.515625 4.296875 -4.140625 C 3.828125 -4.765625 3.578125 -5.410156 3.546875 -6.078125 C 3.523438 -6.515625 3.691406 -6.738281 4.046875 -6.75 C 5.304688 -6.789062 6.40625 -7.226562 7.34375 -8.0625 C 7.707031 -8.382812 7.9375 -8.78125 8.03125 -9.25 C 8.125 -9.71875 8.0625 -10.101562 7.84375 -10.40625 C 7.113281 -11.363281 6.25 -11.867188 5.25 -11.921875 L 5.109375 -11.9375 L 5.015625 -11.953125 L 4.859375 -11.984375 L 4.015625 -12.015625 C 3.703125 -11.992188 3.445312 -11.890625 3.25 -11.703125 C 2.851562 -11.328125 2.445312 -10.832031 2.03125 -10.21875 C 0.675781 -8.195312 0.109375 -6.398438 0.328125 -4.828125 C 0.585938 -2.898438 1.296875 -1.519531 2.453125 -0.6875 C 3.140625 -0.1875 3.898438 0.0351562 4.734375 -0.015625 C 5.546875 -0.046875 6.207031 -0.332031 6.71875 -0.875 C 7.925781 -2.164062 8.894531 -3.519531 9.625 -4.9375 L 9.703125 -5.03125 L 9.796875 -5.15625 C 9.859375 -5.238281 9.832031 -5.320312 9.71875 -5.40625 Z M 9.71875 -5.40625 "/></g></g></g><g fill="#000000" fill-opacity="1"><g transform="translate(84.424486, 20.31261)"><g><path d="M 0.15625 -9.328125 C 0.132812 -9.660156 0.101562 -9.941406 0.0625 -10.171875 C 0.0195312 -10.398438 0.0859375 -10.566406 0.265625 -10.671875 C 0.335938 -10.703125 0.421875 -10.726562 0.515625 -10.75 L 0.640625 -10.765625 L 0.75 -10.78125 L 0.953125 -10.8125 L 1.15625 -10.859375 C 1.332031 -10.890625 1.476562 -10.90625 1.59375 -10.90625 C 1.914062 -10.894531 2.171875 -10.753906 2.359375 -10.484375 C 2.398438 -10.410156 2.445312 -10.398438 2.5 -10.453125 L 2.5625 -10.53125 L 2.609375 -10.59375 C 3.296875 -11.257812 4.023438 -11.578125 4.796875 -11.546875 C 5.191406 -11.523438 5.554688 -11.34375 5.890625 -11 C 6.953125 -9.851562 7.363281 -8.550781 7.125 -7.09375 C 7.113281 -7 7.070312 -6.9375 7 -6.90625 C 6.882812 -6.863281 6.703125 -6.910156 6.453125 -7.046875 C 6.222656 -7.171875 6.070312 -7.296875 6 -7.421875 C 5.8125 -7.722656 5.617188 -8.175781 5.421875 -8.78125 L 5.203125 -9.484375 C 5.097656 -9.742188 5 -9.96875 4.90625 -10.15625 C 4.613281 -10.695312 4.171875 -10.925781 3.578125 -10.84375 C 3.398438 -10.8125 3.222656 -10.625 3.046875 -10.28125 C 2.867188 -9.9375 2.8125 -9.660156 2.875 -9.453125 C 3.394531 -7.878906 3.664062 -6.269531 3.6875 -4.625 L 3.71875 -3.859375 L 3.75 -3.125 C 3.75 -2.539062 3.722656 -2.039062 3.671875 -1.625 C 3.617188 -1.226562 3.53125 -0.9375 3.40625 -0.75 C 3.320312 -0.632812 3.253906 -0.484375 3.203125 -0.296875 L 3.140625 -0.046875 L 3.09375 0.203125 C 3 0.460938 2.851562 0.550781 2.65625 0.46875 C 2.550781 0.414062 2.425781 0.375 2.28125 0.34375 L 1.859375 0.265625 C 1.535156 0.191406 1.28125 0.078125 1.09375 -0.078125 C 0.90625 -0.242188 0.789062 -0.507812 0.75 -0.875 C 0.632812 -1.894531 0.53125 -3.160156 0.4375 -4.671875 L 0.328125 -6.5625 L 0.203125 -8.453125 Z M 0.15625 -9.328125 "/></g></g></g><g fill="#000000" fill-opacity="1"><g transform="translate(93.358387, 20.31261)"><g><path d="M 5.4375 -2.9375 C 5.46875 -3.164062 5.359375 -3.316406 5.109375 -3.390625 C 2.492188 -4.171875 0.929688 -5.734375 0.421875 -8.078125 C 0.335938 -8.484375 0.265625 -8.984375 0.203125 -9.578125 L 0.109375 -10.328125 L 0.03125 -11.078125 L 0 -11.359375 C 0.0195312 -11.472656 0.0859375 -11.535156 0.203125 -11.546875 C 0.410156 -11.585938 0.578125 -11.484375 0.703125 -11.234375 C 0.816406 -10.972656 0.941406 -10.671875 1.078125 -10.328125 L 1.40625 -9.40625 C 1.695312 -8.625 1.960938 -8.019531 2.203125 -7.59375 L 2.484375 -7.03125 L 2.78125 -6.46875 C 3.019531 -6.03125 3.265625 -5.695312 3.515625 -5.46875 L 3.828125 -5.1875 L 4.171875 -4.921875 C 4.441406 -4.710938 4.710938 -4.585938 4.984375 -4.546875 C 5.441406 -4.453125 5.710938 -4.628906 5.796875 -5.078125 L 6.28125 -7.96875 C 6.457031 -9.113281 6.585938 -9.988281 6.671875 -10.59375 C 6.722656 -11.007812 6.925781 -11.21875 7.28125 -11.21875 L 7.546875 -11.234375 L 7.84375 -11.265625 C 8.070312 -11.265625 8.269531 -11.1875 8.4375 -11.03125 C 8.65625 -10.800781 8.769531 -10.488281 8.78125 -10.09375 C 8.78125 -9.695312 8.867188 -9.175781 9.046875 -8.53125 C 9.054688 -8.46875 9.0625 -8.382812 9.0625 -8.28125 L 9.046875 -8.171875 L 9.0625 -8.0625 C 9.269531 -7.1875 9.347656 -6.203125 9.296875 -5.109375 C 9.273438 -4.691406 9.234375 -4.207031 9.171875 -3.65625 L 8.984375 -2.1875 L 8.734375 -0.296875 L 8.515625 1.59375 C 8.304688 3.050781 8.097656 4.304688 7.890625 5.359375 C 7.703125 6.265625 7.050781 7.195312 5.9375 8.15625 C 5.582031 8.457031 5.25 8.378906 4.9375 7.921875 C 4.75 7.648438 4.625 7.316406 4.5625 6.921875 L 4.515625 6.390625 L 4.515625 5.859375 C 4.503906 3.859375 4.691406 1.613281 5.078125 -0.875 Z M 5.4375 -2.9375 "/></g></g></g><g fill="#000000" fill-opacity="1"><g transform="translate(104.59202, 20.31261)"><g><path d="M 8.625 -2.53125 C 8.507812 -1.382812 8.316406 -0.347656 8.046875 0.578125 L 8 0.65625 L 7.96875 0.75 C 7.945312 0.8125 7.96875 0.859375 8.03125 0.890625 C 8.070312 0.910156 8.113281 0.894531 8.15625 0.84375 L 8.203125 0.765625 L 8.25 0.703125 L 8.328125 0.640625 L 8.40625 0.59375 L 8.40625 0.78125 C 8.15625 1.363281 7.769531 1.820312 7.25 2.15625 C 6.675781 2.53125 6.09375 2.644531 5.5 2.5 C 3.09375 1.925781 1.78125 0.300781 1.5625 -2.375 C 1.375 -4.8125 1.328125 -7.164062 1.421875 -9.4375 C 1.429688 -9.65625 1.296875 -9.75 1.015625 -9.71875 L 0.4375 -9.671875 L -0.125 -9.625 C -0.570312 -9.582031 -0.957031 -9.570312 -1.28125 -9.59375 L -1.40625 -9.59375 L -1.546875 -9.609375 C -1.640625 -9.628906 -1.691406 -9.679688 -1.703125 -9.765625 C -1.703125 -9.835938 -1.660156 -9.890625 -1.578125 -9.921875 L -1.453125 -9.96875 L -1.328125 -10 C -0.390625 -10.226562 0.40625 -10.363281 1.0625 -10.40625 C 1.363281 -10.425781 1.523438 -10.585938 1.546875 -10.890625 C 1.640625 -12.484375 1.769531 -13.863281 1.9375 -15.03125 L 1.96875 -15.53125 C 2 -15.71875 2.085938 -15.8125 2.234375 -15.8125 L 2.65625 -15.8125 C 2.820312 -15.8125 2.960938 -15.800781 3.078125 -15.78125 C 3.390625 -15.738281 3.617188 -15.585938 3.765625 -15.328125 C 3.984375 -14.960938 4.144531 -14.519531 4.25 -14 L 4.359375 -13.3125 L 4.4375 -12.609375 C 4.519531 -11.953125 4.585938 -11.320312 4.640625 -10.71875 C 4.660156 -10.53125 4.785156 -10.4375 5.015625 -10.4375 L 6.375 -10.4375 C 6.894531 -10.425781 7.34375 -10.375 7.71875 -10.28125 L 7.8125 -10.265625 L 7.90625 -10.265625 C 7.976562 -10.242188 8.03125 -10.203125 8.0625 -10.140625 L 7.875 -10.078125 L 7.703125 -10.03125 L 5.171875 -9.765625 C 4.898438 -9.734375 4.765625 -9.597656 4.765625 -9.359375 L 4.75 -5.28125 L 4.734375 -1.21875 C 4.742188 -0.914062 4.773438 -0.550781 4.828125 -0.125 L 4.90625 0.4375 L 4.984375 0.984375 L 5.015625 1.109375 L 5.046875 1.21875 C 5.242188 1.789062 5.539062 1.863281 5.9375 1.4375 C 7.164062 0.09375 7.9375 -1.414062 8.25 -3.09375 L 8.265625 -3.21875 L 8.28125 -3.328125 C 8.300781 -3.421875 8.347656 -3.46875 8.421875 -3.46875 C 8.515625 -3.457031 8.5625 -3.410156 8.5625 -3.328125 L 8.53125 -3.21875 L 8.53125 -3.109375 L 8.59375 -2.796875 Z M 8.625 -2.53125 "/></g></g></g><g fill="#000000" fill-opacity="1"><g transform="translate(114.927987, 20.31261)"><g><path d="M 5.6875 -5.8125 C 5.675781 -6.257812 5.679688 -6.644531 5.703125 -6.96875 C 5.742188 -8.007812 5.546875 -9.125 5.109375 -10.3125 C 4.960938 -10.6875 4.71875 -10.785156 4.375 -10.609375 C 3.945312 -10.378906 3.550781 -10.054688 3.1875 -9.640625 C 3.039062 -9.492188 2.960938 -9.304688 2.953125 -9.078125 L 2.953125 -8.78125 L 2.984375 -8.484375 C 3.097656 -6.679688 3.140625 -5.125 3.109375 -3.8125 C 3.097656 -3.445312 3.101562 -3.03125 3.125 -2.5625 L 3.203125 -1.3125 L 3.21875 -0.984375 L 3.21875 -0.671875 C 3.21875 -0.421875 3.175781 -0.234375 3.09375 -0.109375 L 2.953125 0.140625 L 2.828125 0.40625 C 2.722656 0.625 2.601562 0.78125 2.46875 0.875 C 2.164062 1.101562 1.796875 1.078125 1.359375 0.796875 C 1.285156 0.753906 1.1875 0.703125 1.0625 0.640625 L 0.75 0.5 C 0.375 0.289062 0.226562 -0.015625 0.3125 -0.421875 C 0.320312 -0.523438 0.320312 -0.644531 0.3125 -0.78125 L 0.25 -1.125 C 0.195312 -1.40625 0.160156 -1.753906 0.140625 -2.171875 L 0.125 -2.703125 L 0.109375 -3.21875 C 0.0351562 -4.414062 0.0078125 -5.828125 0.03125 -7.453125 L 0.078125 -9.5625 L 0.140625 -11.6875 L 0.15625 -12.6875 L 0.140625 -13.6875 C 0.117188 -14.519531 0.128906 -15.1875 0.171875 -15.6875 C 0.179688 -15.914062 0.316406 -16.117188 0.578125 -16.296875 C 0.847656 -16.484375 1.113281 -16.550781 1.375 -16.5 C 1.769531 -16.414062 2.023438 -16.304688 2.140625 -16.171875 C 2.242188 -16.054688 2.351562 -15.785156 2.46875 -15.359375 C 2.644531 -14.710938 2.757812 -13.910156 2.8125 -12.953125 L 2.859375 -11.71875 C 2.878906 -11.238281 2.90625 -10.835938 2.9375 -10.515625 L 2.9375 -10.359375 C 2.945312 -10.304688 2.960938 -10.273438 2.984375 -10.265625 C 3.023438 -10.242188 3.066406 -10.25 3.109375 -10.28125 L 3.171875 -10.328125 L 3.21875 -10.375 C 4.03125 -11.0625 4.90625 -11.160156 5.84375 -10.671875 C 5.945312 -10.617188 6.019531 -10.546875 6.0625 -10.453125 C 6.320312 -9.859375 6.566406 -9.285156 6.796875 -8.734375 C 7.367188 -7.335938 7.550781 -5.34375 7.34375 -2.75 L 7.328125 -2.375 L 7.28125 -2.015625 C 7.238281 -1.722656 7.144531 -1.484375 7 -1.296875 C 6.90625 -1.171875 6.773438 -1.085938 6.609375 -1.046875 L 6.390625 -1.015625 L 6.1875 -0.96875 C 6.101562 -0.945312 6.03125 -1 5.96875 -1.125 L 5.890625 -1.3125 L 5.84375 -1.5 C 5.78125 -1.851562 5.742188 -2.300781 5.734375 -2.84375 L 5.734375 -3.53125 L 5.71875 -4.21875 L 5.703125 -4.4375 L 5.71875 -4.640625 Z M 5.6875 -5.8125 "/></g></g></g><g fill="#000000" fill-opacity="1"><g transform="translate(124.289347, 20.31261)"><g><path d="M 0 -4.84375 C 0.0390625 -5.164062 0.0664062 -5.546875 0.078125 -5.984375 L 0.109375 -6.59375 L 0.109375 -7.203125 C 0.109375 -8.273438 0.164062 -9.113281 0.28125 -9.71875 L 0.28125 -10.046875 C 0.300781 -10.304688 0.429688 -10.410156 0.671875 -10.359375 C 0.742188 -10.335938 0.835938 -10.320312 0.953125 -10.3125 L 1.25 -10.28125 C 1.476562 -10.25 1.648438 -10.160156 1.765625 -10.015625 C 1.960938 -9.796875 2.078125 -9.582031 2.109375 -9.375 L 2.234375 -8.609375 L 2.359375 -7.828125 C 2.429688 -7.234375 2.46875 -6.707031 2.46875 -6.25 C 2.457031 -4.875 2.578125 -3.742188 2.828125 -2.859375 C 2.878906 -2.679688 2.910156 -2.460938 2.921875 -2.203125 L 2.9375 -1.875 L 2.96875 -1.546875 C 3.019531 -1.160156 2.820312 -0.832031 2.375 -0.5625 C 2.238281 -0.476562 2.035156 -0.472656 1.765625 -0.546875 C 1.492188 -0.617188 1.273438 -0.738281 1.109375 -0.90625 C 0.859375 -1.132812 0.617188 -1.5625 0.390625 -2.1875 C 0.191406 -2.695312 0.0625 -3.582031 0 -4.84375 Z M 1.328125 -11.53125 C 1.066406 -11.53125 0.832031 -11.648438 0.625 -11.890625 C 0.425781 -12.128906 0.34375 -12.382812 0.375 -12.65625 C 0.414062 -12.976562 0.570312 -13.140625 0.84375 -13.140625 L 1.0625 -13.140625 C 1.15625 -13.140625 1.234375 -13.128906 1.296875 -13.109375 C 1.441406 -13.054688 1.546875 -12.945312 1.609375 -12.78125 L 1.75 -12.390625 L 1.875 -11.96875 C 1.894531 -11.882812 1.84375 -11.789062 1.71875 -11.6875 C 1.59375 -11.582031 1.460938 -11.53125 1.328125 -11.53125 Z M 1.328125 -11.53125 "/></g></g></g><g fill="#000000" fill-opacity="1"><g transform="translate(129.051245, 20.31261)"><g><path d="M 9.21875 -4.046875 C 9.175781 -3.535156 9.15625 -3.070312 9.15625 -2.65625 C 9.164062 -2.082031 9.207031 -1.554688 9.28125 -1.078125 C 9.382812 -0.453125 9.101562 0.171875 8.4375 0.796875 C 8.21875 1.003906 7.96875 1.070312 7.6875 1 C 7.570312 0.96875 7.492188 0.894531 7.453125 0.78125 L 7.421875 0.640625 L 7.40625 0.484375 C 7.332031 0.109375 7.3125 -0.332031 7.34375 -0.84375 L 7.4375 -2.15625 C 7.46875 -2.738281 7.453125 -3.519531 7.390625 -4.5 L 7.328125 -5.671875 L 7.296875 -6.84375 L 7.296875 -8.734375 C 7.296875 -9.453125 7.257812 -10.078125 7.1875 -10.609375 L 7.125 -10.90625 C 6.976562 -11.59375 6.53125 -11.8125 5.78125 -11.5625 L 5.65625 -11.5 C 5.601562 -11.46875 5.554688 -11.46875 5.515625 -11.5 L 5.625 -11.59375 L 5.734375 -11.671875 L 5.9375 -11.75 L 6.15625 -11.796875 C 6.007812 -11.828125 5.832031 -11.804688 5.625 -11.734375 C 5.070312 -11.546875 4.617188 -11.164062 4.265625 -10.59375 C 4.171875 -10.445312 4.15625 -10.265625 4.21875 -10.046875 L 4.3125 -9.765625 L 4.390625 -9.5 C 4.847656 -7.53125 4.820312 -5.429688 4.3125 -3.203125 C 4.257812 -2.953125 4.234375 -2.75 4.234375 -2.59375 C 4.273438 -1.9375 3.914062 -1.21875 3.15625 -0.4375 C 2.882812 -0.15625 2.644531 0.046875 2.4375 0.171875 C 2.195312 0.304688 1.972656 0.3125 1.765625 0.1875 L 1.25 -0.109375 L 0.71875 -0.40625 C 0.445312 -0.539062 0.28125 -0.757812 0.21875 -1.0625 C 0.195312 -1.15625 0.179688 -1.289062 0.171875 -1.46875 L 0.15625 -1.859375 C 0.0390625 -3.097656 0.0351562 -4.695312 0.140625 -6.65625 L 0.28125 -9.046875 C 0.332031 -9.972656 0.359375 -10.769531 0.359375 -11.4375 C 0.359375 -12.007812 0.460938 -12.359375 0.671875 -12.484375 C 0.859375 -12.597656 1.304688 -12.632812 2.015625 -12.59375 C 2.429688 -12.570312 2.769531 -12.445312 3.03125 -12.21875 C 3.132812 -12.125 3.234375 -12.007812 3.328125 -11.875 L 3.59375 -11.484375 C 3.738281 -11.265625 3.875 -11.15625 4 -11.15625 C 4.09375 -11.15625 4.226562 -11.25 4.40625 -11.4375 C 4.820312 -11.914062 5.445312 -12.15625 6.28125 -12.15625 C 7 -12.15625 7.519531 -12 7.84375 -11.6875 C 8.125 -11.4375 8.351562 -10.976562 8.53125 -10.3125 C 8.894531 -8.863281 9.125 -6.773438 9.21875 -4.046875 Z M 9.21875 -4.046875 "/></g></g></g><g fill="#000000" fill-opacity="1"><g transform="translate(140.199385, 20.31261)"><g><path d="M 1.46875 -6.28125 C 1.382812 -5.238281 1.8125 -4.40625 2.75 -3.78125 C 3.101562 -3.539062 3.375 -3.582031 3.5625 -3.90625 C 4.238281 -5 4.570312 -6.035156 4.5625 -7.015625 C 4.550781 -7.566406 4.476562 -7.941406 4.34375 -8.140625 C 4.195312 -8.335938 3.878906 -8.492188 3.390625 -8.609375 C 2.984375 -8.691406 2.582031 -8.585938 2.1875 -8.296875 C 1.789062 -8.015625 1.570312 -7.664062 1.53125 -7.25 L 1.484375 -6.78125 Z M 7.8125 -2.1875 C 7.851562 -1.476562 7.800781 -0.695312 7.65625 0.15625 C 7.59375 0.488281 7.515625 0.867188 7.421875 1.296875 L 7.15625 2.40625 C 6.988281 3.113281 6.695312 3.75 6.28125 4.3125 C 5.988281 4.726562 5.53125 5.019531 4.90625 5.1875 C 4.289062 5.363281 3.679688 5.363281 3.078125 5.1875 C 2.148438 4.914062 1.476562 4.296875 1.0625 3.328125 C 0.726562 2.546875 0.484375 1.726562 0.328125 0.875 L 0.3125 0.796875 L 0.3125 0.703125 C 0.3125 0.640625 0.332031 0.597656 0.375 0.578125 C 0.394531 0.566406 0.429688 0.578125 0.484375 0.609375 L 0.5625 0.640625 L 0.609375 0.6875 C 0.816406 0.769531 0.953125 0.957031 1.015625 1.25 C 1.085938 1.59375 1.21875 1.96875 1.40625 2.375 L 1.6875 2.90625 L 1.96875 3.421875 L 2.109375 3.640625 C 2.429688 4.117188 2.804688 4.328125 3.234375 4.265625 C 3.410156 4.242188 3.554688 4.140625 3.671875 3.953125 C 3.710938 3.878906 3.75 3.789062 3.78125 3.6875 L 3.890625 3.40625 C 3.992188 3.113281 4.054688 2.738281 4.078125 2.28125 L 4.09375 1.703125 L 4.125 1.140625 L 4.25 -0.125 L 4.375 -1.375 C 4.394531 -1.582031 4.296875 -1.726562 4.078125 -1.8125 C 2.492188 -2.363281 1.351562 -3.242188 0.65625 -4.453125 C 0.21875 -5.191406 0.0976562 -6.109375 0.296875 -7.203125 C 0.503906 -8.378906 1.015625 -9.21875 1.828125 -9.71875 C 2.015625 -9.832031 2.21875 -9.882812 2.4375 -9.875 L 3.484375 -9.828125 C 3.890625 -9.804688 4.238281 -9.78125 4.53125 -9.75 C 5.144531 -9.664062 5.753906 -9.25 6.359375 -8.5 C 6.984375 -7.71875 7.398438 -6.398438 7.609375 -4.546875 L 7.703125 -3.9375 L 7.78125 -3.34375 C 7.84375 -2.882812 7.851562 -2.5 7.8125 -2.1875 Z M 7.8125 -2.1875 "/></g></g></g><g fill="#000000" fill-opacity="1"><g transform="translate(82.354634, 44.736949)"><g><path d="M 7.8125 -10.953125 C 6.269531 -11.347656 4.84375 -11.425781 3.53125 -11.1875 C 3.15625 -11.113281 2.914062 -11.253906 2.8125 -11.609375 L 2.703125 -11.984375 L 2.578125 -12.6875 L 2.453125 -13.40625 C 2.347656 -13.96875 2.210938 -14.429688 2.046875 -14.796875 C 1.953125 -15.003906 2.03125 -15.113281 2.28125 -15.125 L 2.765625 -15.140625 L 3.265625 -15.15625 C 3.628906 -15.175781 3.945312 -15.226562 4.21875 -15.3125 L 4.4375 -15.375 C 4.519531 -15.40625 4.554688 -15.46875 4.546875 -15.5625 C 4.535156 -15.644531 4.484375 -15.703125 4.390625 -15.734375 L 4.28125 -15.75 L 4.171875 -15.75 L 0.734375 -15.875 C 0.578125 -15.875 0.414062 -15.785156 0.25 -15.609375 C 0.0820312 -15.429688 0 -15.257812 0 -15.09375 L 0.03125 -13.875 L 0.046875 -12.65625 C 0.0664062 -11.6875 0.0625 -10.867188 0.03125 -10.203125 C 0.0078125 -9.578125 0.0195312 -8.84375 0.0625 -8 L 0.125 -6.90625 L 0.203125 -5.8125 C 0.316406 -3.988281 0.300781 -2.523438 0.15625 -1.421875 C 0.0820312 -0.984375 0.257812 -0.609375 0.6875 -0.296875 C 1.113281 0.00390625 1.535156 0.078125 1.953125 -0.078125 C 2.796875 -0.421875 4.046875 -0.644531 5.703125 -0.75 L 6.421875 -0.78125 C 6.703125 -0.800781 6.941406 -0.859375 7.140625 -0.953125 L 7.203125 -0.984375 L 7.28125 -1.046875 C 7.332031 -1.085938 7.351562 -1.140625 7.34375 -1.203125 C 7.320312 -1.265625 7.285156 -1.3125 7.234375 -1.34375 C 7.171875 -1.382812 7.113281 -1.398438 7.0625 -1.390625 C 6.851562 -1.347656 6.617188 -1.335938 6.359375 -1.359375 L 5.640625 -1.421875 C 5.046875 -1.484375 4.578125 -1.460938 4.234375 -1.359375 C 3.953125 -1.265625 3.875 -1.363281 4 -1.65625 C 4.195312 -2.125 4.273438 -2.617188 4.234375 -3.140625 L 4.140625 -4.859375 L 4.078125 -5.953125 C 4.035156 -6.367188 3.957031 -6.71875 3.84375 -7 C 3.664062 -7.414062 3.535156 -7.894531 3.453125 -8.4375 L 3.359375 -9.171875 L 3.296875 -9.90625 C 3.273438 -10.132812 3.367188 -10.253906 3.578125 -10.265625 C 3.816406 -10.265625 4.164062 -10.285156 4.625 -10.328125 L 5.15625 -10.375 L 5.671875 -10.40625 L 6.734375 -10.40625 C 7.148438 -10.40625 7.503906 -10.441406 7.796875 -10.515625 C 7.953125 -10.566406 8.035156 -10.628906 8.046875 -10.703125 C 8.066406 -10.785156 8.046875 -10.847656 7.984375 -10.890625 L 7.90625 -10.9375 Z M 7.8125 -10.953125 "/></g></g></g><g fill="#000000" fill-opacity="1"><g transform="translate(92.134905, 44.736949)"><g><path d="M 0.109375 -10 C 0.0351562 -10.519531 0.015625 -11.222656 0.046875 -12.109375 L 0.109375 -13.1875 C 0.117188 -13.601562 0.117188 -13.96875 0.109375 -14.28125 C 0.109375 -14.445312 0.1875 -14.566406 0.34375 -14.640625 C 0.46875 -14.691406 0.609375 -14.703125 0.765625 -14.671875 C 1.304688 -14.535156 1.722656 -14.296875 2.015625 -13.953125 C 2.398438 -13.484375 2.691406 -12.882812 2.890625 -12.15625 C 2.960938 -11.894531 3.03125 -11.566406 3.09375 -11.171875 L 3.28125 -10.203125 C 3.351562 -9.804688 3.414062 -9.34375 3.46875 -8.8125 L 3.578125 -7.421875 C 3.609375 -6.941406 3.59375 -6.253906 3.53125 -5.359375 L 3.453125 -4.3125 C 3.429688 -3.925781 3.429688 -3.582031 3.453125 -3.28125 C 3.503906 -2.269531 3.472656 -1.140625 3.359375 0.109375 C 3.328125 0.453125 3.160156 0.769531 2.859375 1.0625 C 2.546875 1.34375 2.222656 1.484375 1.890625 1.484375 C 1.804688 1.484375 1.734375 1.4375 1.671875 1.34375 C 1.421875 0.96875 1.269531 0.625 1.21875 0.3125 L 1.03125 -0.78125 L 0.828125 -1.890625 C 0.671875 -2.753906 0.5625 -3.488281 0.5 -4.09375 C 0.257812 -6.320312 0.128906 -8.289062 0.109375 -10 Z M 0.109375 -10 "/></g></g></g><g fill="#000000" fill-opacity="1"><g transform="translate(97.461049, 44.736949)"><g><path d="M 2.609375 -8.71875 C 2.597656 -8.3125 2.632812 -8.039062 2.71875 -7.90625 C 2.800781 -7.769531 3.015625 -7.640625 3.359375 -7.515625 L 4.015625 -7.265625 C 4.265625 -7.171875 4.476562 -7.082031 4.65625 -7 C 5.132812 -6.769531 5.515625 -6.5 5.796875 -6.1875 C 6.285156 -5.632812 6.609375 -5.039062 6.765625 -4.40625 C 6.941406 -3.664062 6.847656 -2.988281 6.484375 -2.375 L 6.1875 -1.875 C 6.070312 -1.675781 5.960938 -1.515625 5.859375 -1.390625 C 5.585938 -1.023438 5.273438 -0.769531 4.921875 -0.625 C 4.703125 -0.53125 4.53125 -0.488281 4.40625 -0.5 C 2.875 -0.632812 1.804688 -1.113281 1.203125 -1.9375 L 0.875 -2.34375 L 0.5625 -2.75 C 0.320312 -3.070312 0.160156 -3.382812 0.078125 -3.6875 L 0.046875 -3.765625 L 0.015625 -3.875 C 0.00390625 -3.945312 0.0234375 -3.992188 0.078125 -4.015625 C 0.117188 -4.035156 0.164062 -4.015625 0.21875 -3.953125 L 0.296875 -3.796875 C 0.429688 -3.546875 0.644531 -3.328125 0.9375 -3.140625 L 1.34375 -2.921875 L 1.75 -2.6875 C 1.925781 -2.570312 2.097656 -2.578125 2.265625 -2.703125 L 2.671875 -3.015625 C 2.828125 -3.140625 2.953125 -3.257812 3.046875 -3.375 C 3.316406 -3.644531 3.492188 -3.945312 3.578125 -4.28125 C 3.710938 -4.769531 3.550781 -5.148438 3.09375 -5.421875 L 2.78125 -5.59375 L 2.484375 -5.75 C 2.253906 -5.882812 2.070312 -6.007812 1.9375 -6.125 C 0.800781 -7.050781 0.222656 -8.007812 0.203125 -9 C 0.203125 -9.40625 0.332031 -9.796875 0.59375 -10.171875 C 0.875 -10.585938 1.207031 -10.828125 1.59375 -10.890625 L 1.90625 -10.96875 L 2.234375 -11.0625 C 2.492188 -11.144531 2.71875 -11.175781 2.90625 -11.15625 C 3.59375 -11.09375 4.132812 -10.84375 4.53125 -10.40625 C 4.945312 -9.957031 5.144531 -9.375 5.125 -8.65625 C 5.125 -8.582031 5.113281 -8.523438 5.09375 -8.484375 C 5.070312 -8.429688 5.03125 -8.394531 4.96875 -8.375 C 4.914062 -8.363281 4.867188 -8.382812 4.828125 -8.4375 L 4.765625 -8.5 L 4.734375 -8.5625 L 4.453125 -9.140625 C 4.335938 -9.378906 4.234375 -9.566406 4.140625 -9.703125 C 3.910156 -10.109375 3.703125 -10.3125 3.515625 -10.3125 C 3.328125 -10.300781 3.125 -10.097656 2.90625 -9.703125 L 2.765625 -9.453125 L 2.65625 -9.21875 C 2.582031 -9.039062 2.566406 -8.875 2.609375 -8.71875 Z M 2.609375 -8.71875 "/></g></g></g><g fill="#000000" fill-opacity="1"><g transform="translate(106.420597, 44.736949)"><g><path d="M 3.6875 -7.453125 C 3.75 -7.628906 3.816406 -7.847656 3.890625 -8.109375 L 4.046875 -8.796875 C 4.171875 -9.335938 4.347656 -9.757812 4.578125 -10.0625 L 4.625 -10.125 L 4.640625 -10.171875 C 4.691406 -10.679688 4.894531 -10.957031 5.25 -11 C 5.46875 -11.019531 5.710938 -10.925781 5.984375 -10.71875 C 6.253906 -10.519531 6.421875 -10.304688 6.484375 -10.078125 L 6.546875 -9.875 L 6.609375 -9.640625 C 6.640625 -9.460938 6.65625 -9.289062 6.65625 -9.125 C 6.457031 -8.488281 6.03125 -7.992188 5.375 -7.640625 C 5.175781 -7.535156 4.941406 -7.453125 4.671875 -7.390625 L 3.921875 -7.265625 C 3.816406 -7.242188 3.75 -7.242188 3.71875 -7.265625 C 3.664062 -7.285156 3.65625 -7.347656 3.6875 -7.453125 Z M 9.71875 -5.40625 C 9.613281 -5.488281 9.519531 -5.492188 9.4375 -5.421875 L 9.328125 -5.3125 L 9.234375 -5.203125 L 8.8125 -4.734375 L 8.40625 -4.25 C 8.070312 -3.894531 7.75 -3.625 7.4375 -3.4375 L 7.09375 -3.21875 L 6.734375 -3.03125 C 6.441406 -2.894531 6.175781 -2.863281 5.9375 -2.9375 C 5.320312 -3.113281 4.773438 -3.515625 4.296875 -4.140625 C 3.828125 -4.765625 3.578125 -5.410156 3.546875 -6.078125 C 3.523438 -6.515625 3.691406 -6.738281 4.046875 -6.75 C 5.304688 -6.789062 6.40625 -7.226562 7.34375 -8.0625 C 7.707031 -8.382812 7.9375 -8.78125 8.03125 -9.25 C 8.125 -9.71875 8.0625 -10.101562 7.84375 -10.40625 C 7.113281 -11.363281 6.25 -11.867188 5.25 -11.921875 L 5.109375 -11.9375 L 5.015625 -11.953125 L 4.859375 -11.984375 L 4.015625 -12.015625 C 3.703125 -11.992188 3.445312 -11.890625 3.25 -11.703125 C 2.851562 -11.328125 2.445312 -10.832031 2.03125 -10.21875 C 0.675781 -8.195312 0.109375 -6.398438 0.328125 -4.828125 C 0.585938 -2.898438 1.296875 -1.519531 2.453125 -0.6875 C 3.140625 -0.1875 3.898438 0.0351562 4.734375 -0.015625 C 5.546875 -0.046875 6.207031 -0.332031 6.71875 -0.875 C 7.925781 -2.164062 8.894531 -3.519531 9.625 -4.9375 L 9.703125 -5.03125 L 9.796875 -5.15625 C 9.859375 -5.238281 9.832031 -5.320312 9.71875 -5.40625 Z M 9.71875 -5.40625 "/></g></g></g><g clip-path="url(#357210a922)"><g clip-path="url(#a9ccd56989)"><g clip-path="url(#5546c79111)"><g transform="matrix(1, 0, 0, 1, 4, 3)"><g clip-path="url(#1dbb755b7c)"><g clip-path="url(#7924307f4b)"><g clip-path="url(#6f3ac2907f)"><g clip-path="url(#f245a2e08c)"><path fill="#fdf9f7" d="M 5.628906 -3.589844 L 51.089844 6.460938 L 41.039062 51.917969 L -4.421875 41.867188 Z M 5.628906 -3.589844 " fill-opacity="1" fill-rule="nonzero"/></g></g></g></g></g></g></g></g><g clip-path="url(#aa334811eb)"><g clip-path="url(#ed49f132da)"><g clip-path="url(#80b0ab0ba8)"><path fill="#0b0019" d="M 49.066406 25.46875 C 49.257812 29.195312 48.460938 32.722656 46.898438 36.089844 C 46.0625 37.890625 44.980469 39.546875 43.707031 41.082031 C 41.734375 43.453125 39.394531 45.359375 36.671875 46.796875 C 34.699219 47.835938 32.617188 48.574219 30.425781 48.953125 C 29.207031 49.164062 27.96875 49.371094 26.722656 49.304688 C 25.882812 49.257812 25.039062 49.246094 24.195312 49.167969 C 21.84375 48.960938 19.640625 48.289062 17.519531 47.304688 C 15.941406 46.574219 14.507812 45.617188 13.164062 44.519531 C 12.273438 43.796875 11.480469 42.980469 10.734375 42.117188 C 10.527344 41.875 10.503906 41.585938 10.691406 41.4375 C 10.933594 41.246094 11.164062 41.304688 11.363281 41.519531 C 11.773438 41.957031 12.171875 42.398438 12.605469 42.820312 C 15.015625 45.167969 17.84375 46.792969 21.085938 47.695312 C 22.351562 48.046875 23.636719 48.277344 24.953125 48.359375 C 25.640625 48.402344 26.332031 48.453125 27.019531 48.453125 C 27.75 48.453125 28.484375 48.347656 29.214844 48.253906 C 30.632812 48.066406 32.023438 47.746094 33.371094 47.265625 C 35.65625 46.457031 37.761719 45.3125 39.667969 43.796875 C 40.773438 42.917969 41.808594 41.972656 42.726562 40.902344 C 44.417969 38.941406 45.742188 36.753906 46.6875 34.339844 C 47.253906 32.898438 47.664062 31.414062 47.921875 29.886719 C 48.023438 29.269531 48.074219 28.648438 48.148438 28.027344 C 48.332031 26.464844 48.292969 24.898438 48.058594 23.359375 C 47.734375 21.207031 47.132812 19.121094 46.171875 17.148438 C 45.417969 15.605469 44.507812 14.171875 43.398438 12.863281 C 42.09375 11.328125 40.59375 10.015625 38.882812 8.9375 C 36.660156 7.535156 34.265625 6.609375 31.679688 6.15625 C 29.964844 5.851562 28.234375 5.730469 26.503906 5.894531 C 23.363281 6.199219 20.394531 7.105469 17.652344 8.699219 C 15.871094 9.734375 14.265625 10.992188 12.824219 12.472656 C 10.789062 14.554688 9.25 16.949219 8.132812 19.625 C 7.320312 21.570312 6.808594 23.601562 6.59375 25.695312 C 6.492188 26.6875 6.4375 27.691406 6.480469 28.6875 C 6.582031 31.058594 6.996094 33.371094 7.863281 35.589844 C 7.917969 35.730469 7.984375 35.867188 8.015625 36.011719 C 8.0625 36.199219 8.042969 36.414062 7.832031 36.46875 C 7.632812 36.515625 7.382812 36.644531 7.230469 36.339844 C 6.996094 35.859375 6.820312 35.359375 6.660156 34.855469 C 6.269531 33.59375 5.9375 32.316406 5.792969 31 C 5.636719 29.617188 5.527344 28.222656 5.613281 26.839844 C 5.855469 22.738281 7.074219 18.9375 9.296875 15.476562 C 10.214844 14.042969 11.277344 12.71875 12.488281 11.535156 C 14.714844 9.359375 17.253906 7.660156 20.160156 6.515625 C 21.546875 5.96875 22.972656 5.5625 24.433594 5.285156 C 25.964844 4.992188 27.527344 4.914062 29.078125 4.972656 C 31.828125 5.074219 34.476562 5.71875 36.980469 6.882812 C 38.625 7.648438 40.148438 8.613281 41.542969 9.785156 C 44.945312 12.652344 47.183594 16.253906 48.359375 20.527344 C 48.582031 21.335938 48.730469 22.167969 48.882812 22.992188 C 49.03125 23.808594 49.03125 24.640625 49.066406 25.46875 Z M 49.066406 25.46875 " fill-opacity="1" fill-rule="nonzero"/></g></g></g><g clip-path="url(#af4666fde9)"><g clip-path="url(#9832e9f9da)"><g clip-path="url(#051ffa7094)"><g transform="matrix(1, 0, 0, 1, 6, 6)"><g clip-path="url(#e14a816735)"><g clip-path="url(#ee8a5dea6d)"><g clip-path="url(#cf75af02f9)"><g clip-path="url(#de22163b8b)"><path fill="#ffcc00" d="M -1.523438 39.148438 L 3.34375 -1.703125 L 44.195312 3.164062 L 39.328125 44.019531 Z M -1.523438 39.148438 " fill-opacity="1" fill-rule="nonzero"/></g></g></g></g></g></g></g></g></svg>