<svg xmlns="http://www.w3.org/2000/svg" xmlns:xlink="http://www.w3.org/1999/xlink" width="200" zoomAndPan="magnify" viewBox="0 0 150 56.249996" height="75" preserveAspectRatio="xMidYMid meet" version="1.0"><defs><g/><clipPath id="87aaa0a946"><path d="M 4 3 L 51 3 L 51 51 L 4 51 Z M 4 3 " clip-rule="nonzero"/></clipPath><clipPath id="86b6c8c483"><path d="M 9.628906 -0.589844 L 55.089844 9.460938 L 45.039062 54.917969 L -0.421875 44.867188 Z M 9.628906 -0.589844 " clip-rule="nonzero"/></clipPath><clipPath id="f9b16ef897"><path d="M 32.359375 4.433594 C 19.808594 1.660156 7.378906 9.585938 4.605469 22.136719 C 1.828125 34.691406 9.753906 47.117188 22.308594 49.894531 C 34.863281 52.667969 47.289062 44.742188 50.0625 32.1875 C 52.839844 19.636719 44.914062 7.210938 32.359375 4.433594 Z M 32.359375 4.433594 " clip-rule="nonzero"/></clipPath><clipPath id="1f7c409822"><path d="M 0 0 L 47 0 L 47 48 L 0 48 Z M 0 0 " clip-rule="nonzero"/></clipPath><clipPath id="cb421163bc"><path d="M 5.628906 -3.589844 L 51.089844 6.460938 L 41.039062 51.917969 L -4.421875 41.867188 Z M 5.628906 -3.589844 " clip-rule="nonzero"/></clipPath><clipPath id="321aebe184"><path d="M 28.359375 1.433594 C 15.808594 -1.339844 3.378906 6.585938 0.605469 19.136719 C -2.171875 31.691406 5.753906 44.117188 18.308594 46.894531 C 30.863281 49.667969 43.289062 41.742188 46.0625 29.1875 C 48.839844 16.636719 40.914062 4.210938 28.359375 1.433594 Z M 28.359375 1.433594 " clip-rule="nonzero"/></clipPath><clipPath id="e133c7b2bb"><rect x="0" width="47" y="0" height="48"/></clipPath><clipPath id="44bd02669d"><path d="M 5 4 L 50 4 L 50 50 L 5 50 Z M 5 4 " clip-rule="nonzero"/></clipPath><clipPath id="a7c7f4b6f9"><path d="M 49.957031 48.578125 L 6.316406 50.148438 L 4.722656 5.769531 L 48.363281 4.199219 Z M 49.957031 48.578125 " clip-rule="nonzero"/></clipPath><clipPath id="b0cc3e5dab"><path d="M 49.957031 48.578125 L 6.316406 50.148438 L 4.722656 5.769531 L 48.363281 4.199219 Z M 49.957031 48.578125 " clip-rule="nonzero"/></clipPath><clipPath id="d55d6a8ed0"><path d="M 6 6 L 48 6 L 48 48 L 6 48 Z M 6 6 " clip-rule="nonzero"/></clipPath><clipPath id="0b697cd42d"><path d="M 4.476562 45.148438 L 9.34375 4.296875 L 50.195312 9.164062 L 45.328125 50.019531 Z M 4.476562 45.148438 " clip-rule="nonzero"/></clipPath><clipPath id="0c177461f3"><path d="M 6.910156 24.722656 C 5.566406 36.003906 13.621094 46.238281 24.902344 47.582031 C 36.183594 48.929688 46.417969 40.871094 47.761719 29.589844 C 49.105469 18.3125 41.050781 8.074219 29.769531 6.730469 C 18.488281 5.386719 8.253906 13.441406 6.910156 24.722656 Z M 6.910156 24.722656 " clip-rule="nonzero"/></clipPath><clipPath id="d7c9c62af3"><path d="M 0 0 L 42 0 L 42 42 L 0 42 Z M 0 0 " clip-rule="nonzero"/></clipPath><clipPath id="12c71041ea"><path d="M -1.523438 39.148438 L 3.34375 -1.703125 L 44.195312 3.164062 L 39.328125 44.019531 Z M -1.523438 39.148438 " clip-rule="nonzero"/></clipPath><clipPath id="9bf23034d9"><path d="M 0.910156 18.722656 C -0.433594 30.003906 7.621094 40.238281 18.902344 41.582031 C 30.183594 42.929688 40.417969 34.871094 41.761719 23.589844 C 43.105469 12.3125 35.050781 2.074219 23.769531 0.730469 C 12.488281 -0.613281 2.253906 7.441406 0.910156 18.722656 Z M 0.910156 18.722656 " clip-rule="nonzero"/></clipPath><clipPath id="627764cb08"><rect x="0" width="42" y="0" height="42"/></clipPath></defs><g fill="#000000" fill-opacity="1"><g transform="translate(61.236624, 18.585764)"><g><path d="M 5.90625 -8.28125 C 4.738281 -8.582031 3.660156 -8.644531 2.671875 -8.46875 C 2.390625 -8.414062 2.207031 -8.519531 2.125 -8.78125 L 2.046875 -9.0625 L 1.953125 -9.59375 L 1.84375 -10.140625 C 1.769531 -10.566406 1.671875 -10.921875 1.546875 -11.203125 C 1.472656 -11.359375 1.535156 -11.4375 1.734375 -11.4375 L 2.09375 -11.453125 L 2.46875 -11.46875 C 2.75 -11.476562 2.988281 -11.519531 3.1875 -11.59375 L 3.28125 -11.609375 L 3.359375 -11.625 C 3.421875 -11.65625 3.445312 -11.707031 3.4375 -11.78125 C 3.425781 -11.84375 3.390625 -11.878906 3.328125 -11.890625 L 3.234375 -11.921875 L 3.15625 -11.921875 L 0.546875 -12.015625 C 0.429688 -12.015625 0.3125 -11.945312 0.1875 -11.8125 C 0.0625 -11.675781 0 -11.546875 0 -11.421875 L 0.015625 -10.5 L 0.03125 -9.5625 C 0.0507812 -8.832031 0.0507812 -8.21875 0.03125 -7.71875 C 0.0078125 -7.238281 0.015625 -6.6875 0.046875 -6.0625 L 0.09375 -5.234375 L 0.15625 -4.40625 C 0.238281 -3.019531 0.222656 -1.910156 0.109375 -1.078125 C 0.0546875 -0.742188 0.195312 -0.457031 0.53125 -0.21875 C 0.851562 0.0078125 1.171875 0.0625 1.484375 -0.0625 C 2.117188 -0.320312 3.0625 -0.488281 4.3125 -0.5625 L 4.59375 -0.578125 L 4.859375 -0.59375 C 5.066406 -0.601562 5.242188 -0.644531 5.390625 -0.71875 L 5.453125 -0.75 L 5.515625 -0.796875 C 5.546875 -0.828125 5.554688 -0.863281 5.546875 -0.90625 C 5.535156 -0.957031 5.507812 -0.992188 5.46875 -1.015625 C 5.425781 -1.046875 5.382812 -1.054688 5.34375 -1.046875 C 5.1875 -1.023438 5.007812 -1.019531 4.8125 -1.03125 L 4.265625 -1.078125 C 3.816406 -1.128906 3.460938 -1.113281 3.203125 -1.03125 C 2.992188 -0.957031 2.929688 -1.03125 3.015625 -1.25 C 3.171875 -1.601562 3.234375 -1.976562 3.203125 -2.375 L 3.15625 -3.03125 L 3.125 -3.6875 L 3.109375 -4.09375 L 3.078125 -4.5 C 3.054688 -4.820312 3 -5.085938 2.90625 -5.296875 C 2.769531 -5.609375 2.671875 -5.972656 2.609375 -6.390625 L 2.546875 -6.9375 L 2.484375 -7.5 C 2.472656 -7.664062 2.546875 -7.753906 2.703125 -7.765625 C 2.890625 -7.765625 3.15625 -7.78125 3.5 -7.8125 L 3.890625 -7.84375 L 4.296875 -7.875 L 5.09375 -7.875 C 5.40625 -7.875 5.671875 -7.898438 5.890625 -7.953125 C 6.015625 -7.992188 6.082031 -8.039062 6.09375 -8.09375 C 6.101562 -8.15625 6.085938 -8.203125 6.046875 -8.234375 L 5.984375 -8.265625 Z M 5.90625 -8.28125 "/></g></g></g><g fill="#000000" fill-opacity="1"><g transform="translate(68.633195, 18.585764)"><g><path d="M 1.3125 -8.90625 C 2.039062 -8.976562 2.535156 -8.679688 2.796875 -8.015625 C 3.460938 -6.265625 3.953125 -4.921875 4.265625 -3.984375 C 4.335938 -3.765625 4.457031 -3.492188 4.625 -3.171875 L 4.828125 -2.78125 L 5.015625 -2.375 L 5.203125 -1.921875 L 5.359375 -1.46875 L 5.421875 -1.328125 L 5.484375 -1.390625 L 5.53125 -1.46875 L 5.84375 -2.359375 L 6.171875 -3.234375 C 6.453125 -3.960938 6.648438 -4.554688 6.765625 -5.015625 C 6.847656 -5.390625 7.039062 -5.875 7.34375 -6.46875 L 7.671875 -7.171875 C 7.804688 -7.441406 7.90625 -7.6875 7.96875 -7.90625 C 7.988281 -7.976562 8.023438 -8.035156 8.078125 -8.078125 C 8.128906 -8.117188 8.1875 -8.125 8.25 -8.09375 C 8.394531 -8.039062 8.425781 -7.921875 8.34375 -7.734375 C 7.90625 -6.679688 7.46875 -5.445312 7.03125 -4.03125 L 6.765625 -3.125 L 6.5 -2.234375 C 6.28125 -1.523438 6.078125 -0.9375 5.890625 -0.46875 C 5.734375 -0.09375 5.40625 0.34375 4.90625 0.84375 C 4.8125 0.9375 4.691406 0.96875 4.546875 0.9375 C 4.429688 0.914062 4.296875 0.851562 4.140625 0.75 C 3.921875 0.613281 3.734375 0.40625 3.578125 0.125 L 3.390625 -0.265625 L 3.203125 -0.640625 C 2.429688 -2.140625 1.820312 -3.46875 1.375 -4.625 C 0.800781 -6.125 0.375 -7.273438 0.09375 -8.078125 C 0.0507812 -8.179688 0.0820312 -8.273438 0.1875 -8.359375 L 0.3125 -8.46875 L 0.453125 -8.546875 C 0.734375 -8.785156 1.019531 -8.90625 1.3125 -8.90625 Z M 1.3125 -8.90625 "/></g></g></g><g fill="#000000" fill-opacity="1"><g transform="translate(78.059945, 18.585764)"><g><path d="M 2.796875 -5.640625 C 2.835938 -5.773438 2.882812 -5.941406 2.9375 -6.140625 L 3.0625 -6.65625 C 3.15625 -7.0625 3.289062 -7.378906 3.46875 -7.609375 L 3.5 -7.65625 L 3.5 -7.6875 C 3.539062 -8.070312 3.695312 -8.28125 3.96875 -8.3125 C 4.132812 -8.332031 4.320312 -8.265625 4.53125 -8.109375 C 4.726562 -7.953125 4.851562 -7.789062 4.90625 -7.625 L 4.953125 -7.46875 L 5 -7.296875 C 5.03125 -7.160156 5.039062 -7.03125 5.03125 -6.90625 C 4.882812 -6.425781 4.5625 -6.050781 4.0625 -5.78125 C 3.914062 -5.695312 3.738281 -5.632812 3.53125 -5.59375 L 3.25 -5.53125 L 2.96875 -5.5 C 2.894531 -5.476562 2.84375 -5.476562 2.8125 -5.5 C 2.769531 -5.519531 2.765625 -5.566406 2.796875 -5.640625 Z M 7.34375 -4.09375 C 7.269531 -4.144531 7.203125 -4.148438 7.140625 -4.109375 L 7.0625 -4.03125 L 6.984375 -3.9375 L 6.359375 -3.21875 C 6.109375 -2.945312 5.863281 -2.738281 5.625 -2.59375 L 5.359375 -2.4375 L 5.09375 -2.296875 C 4.875 -2.191406 4.675781 -2.164062 4.5 -2.21875 C 4.03125 -2.351562 3.613281 -2.660156 3.25 -3.140625 C 2.894531 -3.609375 2.707031 -4.09375 2.6875 -4.59375 C 2.664062 -4.925781 2.789062 -5.097656 3.0625 -5.109375 C 4.019531 -5.140625 4.851562 -5.46875 5.5625 -6.09375 C 5.832031 -6.34375 6.003906 -6.644531 6.078125 -7 C 6.148438 -7.351562 6.101562 -7.644531 5.9375 -7.875 C 5.382812 -8.59375 4.726562 -8.972656 3.96875 -9.015625 L 3.875 -9.03125 L 3.796875 -9.046875 L 3.671875 -9.0625 L 3.046875 -9.09375 C 2.804688 -9.082031 2.609375 -9.003906 2.453125 -8.859375 C 2.160156 -8.578125 1.859375 -8.195312 1.546875 -7.71875 C 0.515625 -6.195312 0.0820312 -4.84375 0.25 -3.65625 C 0.445312 -2.195312 0.976562 -1.15625 1.84375 -0.53125 C 2.375 -0.144531 2.953125 0.03125 3.578125 0 C 4.191406 -0.03125 4.691406 -0.253906 5.078125 -0.671875 C 5.992188 -1.640625 6.726562 -2.660156 7.28125 -3.734375 L 7.34375 -3.8125 L 7.421875 -3.890625 C 7.460938 -3.953125 7.4375 -4.019531 7.34375 -4.09375 Z M 7.34375 -4.09375 "/></g></g></g><g fill="#000000" fill-opacity="1"><g transform="translate(86.82721, 18.585764)"><g><path d="M 0.125 -7.046875 C 0.101562 -7.304688 0.078125 -7.523438 0.046875 -7.703125 C 0.015625 -7.867188 0.0664062 -7.988281 0.203125 -8.0625 C 0.253906 -8.09375 0.316406 -8.113281 0.390625 -8.125 L 0.484375 -8.140625 L 0.875 -8.21875 C 1.007812 -8.238281 1.117188 -8.25 1.203125 -8.25 C 1.453125 -8.238281 1.644531 -8.128906 1.78125 -7.921875 C 1.8125 -7.878906 1.847656 -7.875 1.890625 -7.90625 L 1.9375 -7.96875 L 1.96875 -8.015625 C 2.488281 -8.515625 3.039062 -8.753906 3.625 -8.734375 C 3.925781 -8.722656 4.203125 -8.582031 4.453125 -8.3125 C 5.253906 -7.457031 5.566406 -6.476562 5.390625 -5.375 C 5.378906 -5.300781 5.347656 -5.253906 5.296875 -5.234375 C 5.203125 -5.191406 5.066406 -5.222656 4.890625 -5.328125 C 4.710938 -5.421875 4.59375 -5.515625 4.53125 -5.609375 C 4.394531 -5.835938 4.253906 -6.179688 4.109375 -6.640625 L 3.9375 -7.171875 C 3.863281 -7.367188 3.785156 -7.539062 3.703125 -7.6875 C 3.492188 -8.09375 3.160156 -8.265625 2.703125 -8.203125 C 2.566406 -8.179688 2.429688 -8.039062 2.296875 -7.78125 C 2.171875 -7.519531 2.132812 -7.3125 2.1875 -7.15625 C 2.570312 -5.957031 2.773438 -4.738281 2.796875 -3.5 L 2.8125 -2.921875 L 2.828125 -2.359375 C 2.835938 -1.921875 2.820312 -1.546875 2.78125 -1.234375 C 2.738281 -0.929688 2.671875 -0.707031 2.578125 -0.5625 C 2.515625 -0.476562 2.460938 -0.363281 2.421875 -0.21875 L 2.328125 0.15625 C 2.265625 0.351562 2.160156 0.414062 2.015625 0.34375 C 1.929688 0.3125 1.832031 0.285156 1.71875 0.265625 L 1.40625 0.203125 C 1.15625 0.148438 0.960938 0.0625 0.828125 -0.0625 C 0.679688 -0.1875 0.59375 -0.390625 0.5625 -0.671875 C 0.476562 -1.441406 0.398438 -2.394531 0.328125 -3.53125 L 0.25 -4.96875 L 0.15625 -6.40625 Z M 0.125 -7.046875 "/></g></g></g><g fill="#000000" fill-opacity="1"><g transform="translate(93.5837, 18.585764)"><g><path d="M 4.109375 -2.21875 C 4.128906 -2.394531 4.050781 -2.507812 3.875 -2.5625 C 1.894531 -3.15625 0.710938 -4.335938 0.328125 -6.109375 C 0.253906 -6.421875 0.195312 -6.800781 0.15625 -7.25 L 0.078125 -7.8125 L 0.015625 -8.390625 L 0 -8.484375 L 0 -8.59375 C 0.0078125 -8.675781 0.0625 -8.722656 0.15625 -8.734375 C 0.3125 -8.765625 0.4375 -8.6875 0.53125 -8.5 C 0.625 -8.300781 0.71875 -8.070312 0.8125 -7.8125 L 1.0625 -7.109375 C 1.28125 -6.523438 1.476562 -6.070312 1.65625 -5.75 L 1.875 -5.328125 L 2.109375 -4.890625 C 2.285156 -4.566406 2.46875 -4.316406 2.65625 -4.140625 L 2.890625 -3.921875 L 3.15625 -3.71875 C 3.363281 -3.5625 3.566406 -3.46875 3.765625 -3.4375 C 4.117188 -3.363281 4.320312 -3.5 4.375 -3.84375 L 4.75 -6.015625 C 4.882812 -6.890625 4.984375 -7.554688 5.046875 -8.015625 C 5.085938 -8.328125 5.238281 -8.484375 5.5 -8.484375 L 5.9375 -8.515625 C 6.101562 -8.515625 6.25 -8.457031 6.375 -8.34375 C 6.539062 -8.164062 6.628906 -7.929688 6.640625 -7.640625 C 6.640625 -7.335938 6.707031 -6.941406 6.84375 -6.453125 C 6.84375 -6.410156 6.84375 -6.347656 6.84375 -6.265625 L 6.84375 -6.09375 C 7.007812 -5.4375 7.070312 -4.695312 7.03125 -3.875 C 7.007812 -3.550781 6.976562 -3.179688 6.9375 -2.765625 L 6.796875 -1.65625 L 6.609375 -0.21875 L 6.4375 1.203125 C 6.289062 2.304688 6.132812 3.257812 5.96875 4.0625 C 5.832031 4.738281 5.34375 5.441406 4.5 6.171875 C 4.226562 6.398438 3.972656 6.34375 3.734375 6 C 3.585938 5.789062 3.492188 5.535156 3.453125 5.234375 L 3.421875 4.84375 L 3.421875 4.4375 C 3.410156 2.925781 3.550781 1.226562 3.84375 -0.65625 Z M 4.109375 -2.21875 "/></g></g></g><g fill="#000000" fill-opacity="1"><g transform="translate(102.079412, 18.585764)"><g><path d="M 6.53125 -1.921875 C 6.445312 -1.046875 6.296875 -0.257812 6.078125 0.4375 L 6.0625 0.484375 L 6.015625 0.5625 C 6.003906 0.613281 6.023438 0.648438 6.078125 0.671875 C 6.109375 0.691406 6.140625 0.679688 6.171875 0.640625 L 6.21875 0.578125 L 6.25 0.53125 L 6.296875 0.484375 L 6.359375 0.453125 L 6.359375 0.59375 C 6.171875 1.03125 5.878906 1.378906 5.484375 1.640625 C 5.054688 1.910156 4.613281 1.992188 4.15625 1.890625 C 2.34375 1.453125 1.351562 0.222656 1.1875 -1.796875 C 1.039062 -3.640625 1.003906 -5.421875 1.078125 -7.140625 C 1.085938 -7.296875 0.984375 -7.367188 0.765625 -7.359375 L 0.34375 -7.3125 L -0.09375 -7.28125 C -0.4375 -7.25 -0.726562 -7.238281 -0.96875 -7.25 L -1.0625 -7.265625 L -1.171875 -7.265625 C -1.242188 -7.285156 -1.28125 -7.328125 -1.28125 -7.390625 C -1.289062 -7.441406 -1.257812 -7.484375 -1.1875 -7.515625 L -1.09375 -7.546875 L -1 -7.5625 C -0.289062 -7.738281 0.304688 -7.84375 0.796875 -7.875 C 1.035156 -7.882812 1.160156 -8.007812 1.171875 -8.25 C 1.242188 -9.445312 1.34375 -10.488281 1.46875 -11.375 L 1.5 -11.75 C 1.519531 -11.894531 1.582031 -11.960938 1.6875 -11.953125 L 2 -11.96875 C 2.132812 -11.96875 2.242188 -11.957031 2.328125 -11.9375 C 2.554688 -11.90625 2.734375 -11.789062 2.859375 -11.59375 C 3.015625 -11.320312 3.132812 -10.988281 3.21875 -10.59375 L 3.296875 -10.0625 L 3.359375 -9.53125 C 3.421875 -9.039062 3.472656 -8.566406 3.515625 -8.109375 C 3.523438 -7.960938 3.617188 -7.890625 3.796875 -7.890625 L 4.3125 -7.890625 L 4.8125 -7.90625 C 5.207031 -7.894531 5.546875 -7.851562 5.828125 -7.78125 L 5.90625 -7.765625 L 5.984375 -7.765625 C 6.035156 -7.753906 6.070312 -7.722656 6.09375 -7.671875 L 5.953125 -7.625 L 5.828125 -7.578125 L 3.90625 -7.375 C 3.707031 -7.351562 3.609375 -7.253906 3.609375 -7.078125 L 3.578125 -0.921875 C 3.585938 -0.691406 3.613281 -0.414062 3.65625 -0.09375 L 3.71875 0.328125 L 3.765625 0.75 L 3.796875 0.828125 L 3.828125 0.921875 C 3.972656 1.359375 4.191406 1.414062 4.484375 1.09375 C 5.421875 0.0703125 6.007812 -1.070312 6.25 -2.34375 L 6.25 -2.4375 L 6.265625 -2.515625 C 6.273438 -2.585938 6.3125 -2.625 6.375 -2.625 C 6.445312 -2.613281 6.476562 -2.578125 6.46875 -2.515625 L 6.453125 -2.4375 L 6.453125 -2.34375 L 6.5 -2.109375 Z M 6.53125 -1.921875 "/></g></g></g><g fill="#000000" fill-opacity="1"><g transform="translate(109.896249, 18.585764)"><g><path d="M 4.296875 -4.390625 C 4.296875 -4.734375 4.300781 -5.023438 4.3125 -5.265625 C 4.34375 -6.054688 4.191406 -6.898438 3.859375 -7.796875 C 3.753906 -8.085938 3.570312 -8.160156 3.3125 -8.015625 C 2.988281 -7.847656 2.6875 -7.609375 2.40625 -7.296875 C 2.300781 -7.179688 2.242188 -7.039062 2.234375 -6.875 L 2.234375 -6.640625 L 2.265625 -6.421875 C 2.347656 -5.054688 2.378906 -3.875 2.359375 -2.875 C 2.347656 -2.601562 2.351562 -2.289062 2.375 -1.9375 L 2.421875 -1 L 2.4375 -0.75 L 2.4375 -0.5 C 2.4375 -0.3125 2.398438 -0.171875 2.328125 -0.078125 L 2.234375 0.109375 L 2.140625 0.3125 C 2.054688 0.46875 1.96875 0.582031 1.875 0.65625 C 1.644531 0.832031 1.363281 0.816406 1.03125 0.609375 C 0.976562 0.578125 0.898438 0.535156 0.796875 0.484375 L 0.5625 0.375 C 0.28125 0.21875 0.171875 -0.0078125 0.234375 -0.3125 C 0.242188 -0.394531 0.242188 -0.488281 0.234375 -0.59375 L 0.1875 -0.859375 C 0.144531 -1.066406 0.117188 -1.328125 0.109375 -1.640625 L 0.09375 -2.046875 L 0.078125 -2.4375 C 0.0234375 -3.34375 0.0078125 -4.410156 0.03125 -5.640625 L 0.0625 -7.234375 L 0.109375 -8.84375 L 0.109375 -10.359375 C 0.0859375 -10.984375 0.09375 -11.488281 0.125 -11.875 C 0.132812 -12.039062 0.238281 -12.191406 0.4375 -12.328125 C 0.644531 -12.460938 0.847656 -12.515625 1.046875 -12.484375 C 1.335938 -12.421875 1.53125 -12.335938 1.625 -12.234375 C 1.695312 -12.148438 1.78125 -11.945312 1.875 -11.625 C 2.007812 -11.132812 2.09375 -10.523438 2.125 -9.796875 L 2.15625 -8.875 C 2.175781 -8.5 2.195312 -8.191406 2.21875 -7.953125 L 2.21875 -7.84375 C 2.226562 -7.800781 2.242188 -7.773438 2.265625 -7.765625 C 2.285156 -7.742188 2.316406 -7.75 2.359375 -7.78125 L 2.4375 -7.859375 C 3.050781 -8.367188 3.710938 -8.441406 4.421875 -8.078125 C 4.492188 -8.035156 4.546875 -7.976562 4.578125 -7.90625 C 4.785156 -7.457031 4.972656 -7.023438 5.140625 -6.609375 C 5.578125 -5.546875 5.710938 -4.035156 5.546875 -2.078125 L 5.515625 -1.515625 C 5.472656 -1.304688 5.398438 -1.128906 5.296875 -0.984375 C 5.222656 -0.878906 5.125 -0.816406 5 -0.796875 L 4.828125 -0.765625 L 4.671875 -0.734375 C 4.609375 -0.710938 4.554688 -0.753906 4.515625 -0.859375 L 4.453125 -0.984375 L 4.421875 -1.125 C 4.378906 -1.40625 4.351562 -1.75 4.34375 -2.15625 L 4.328125 -2.671875 L 4.328125 -3.1875 L 4.3125 -3.34375 L 4.328125 -3.515625 Z M 4.296875 -4.390625 "/></g></g></g><g fill="#000000" fill-opacity="1"><g transform="translate(116.976015, 18.585764)"><g><path d="M 0 -3.65625 C 0.03125 -3.90625 0.0507812 -4.195312 0.0625 -4.53125 L 0.078125 -4.984375 L 0.078125 -5.453125 C 0.078125 -6.265625 0.117188 -6.898438 0.203125 -7.359375 L 0.21875 -7.484375 L 0.21875 -7.609375 C 0.226562 -7.804688 0.328125 -7.878906 0.515625 -7.828125 C 0.566406 -7.816406 0.632812 -7.804688 0.71875 -7.796875 L 0.9375 -7.78125 C 1.113281 -7.757812 1.25 -7.691406 1.34375 -7.578125 C 1.488281 -7.410156 1.570312 -7.25 1.59375 -7.09375 L 1.6875 -6.515625 L 1.78125 -5.921875 C 1.84375 -5.472656 1.867188 -5.070312 1.859375 -4.71875 C 1.847656 -3.675781 1.941406 -2.828125 2.140625 -2.171875 C 2.171875 -2.035156 2.195312 -1.863281 2.21875 -1.65625 L 2.21875 -1.421875 L 2.25 -1.171875 C 2.289062 -0.878906 2.140625 -0.628906 1.796875 -0.421875 C 1.691406 -0.359375 1.535156 -0.359375 1.328125 -0.421875 C 1.128906 -0.472656 0.960938 -0.5625 0.828125 -0.6875 C 0.648438 -0.863281 0.472656 -1.1875 0.296875 -1.65625 C 0.148438 -2.039062 0.0507812 -2.707031 0 -3.65625 Z M 1.015625 -8.71875 C 0.804688 -8.726562 0.625 -8.820312 0.46875 -9 C 0.320312 -9.175781 0.257812 -9.363281 0.28125 -9.5625 C 0.3125 -9.8125 0.429688 -9.9375 0.640625 -9.9375 L 0.8125 -9.9375 C 0.875 -9.9375 0.929688 -9.929688 0.984375 -9.921875 C 1.097656 -9.878906 1.175781 -9.796875 1.21875 -9.671875 L 1.3125 -9.375 L 1.421875 -9.0625 C 1.429688 -8.988281 1.390625 -8.914062 1.296875 -8.84375 C 1.203125 -8.757812 1.109375 -8.71875 1.015625 -8.71875 Z M 1.015625 -8.71875 "/></g></g></g><g fill="#000000" fill-opacity="1"><g transform="translate(120.577324, 18.585764)"><g><path d="M 6.96875 -3.0625 C 6.9375 -2.675781 6.921875 -2.328125 6.921875 -2.015625 C 6.929688 -1.578125 6.96875 -1.175781 7.03125 -0.8125 C 7.101562 -0.34375 6.882812 0.128906 6.375 0.609375 C 6.21875 0.753906 6.03125 0.800781 5.8125 0.75 C 5.726562 0.726562 5.671875 0.675781 5.640625 0.59375 L 5.609375 0.484375 L 5.609375 0.359375 C 5.554688 0.078125 5.535156 -0.253906 5.546875 -0.640625 L 5.59375 -1.125 L 5.625 -1.625 C 5.65625 -2.070312 5.644531 -2.664062 5.59375 -3.40625 L 5.546875 -4.296875 L 5.515625 -5.1875 L 5.53125 -5.890625 L 5.53125 -6.609375 C 5.519531 -7.148438 5.488281 -7.625 5.4375 -8.03125 L 5.390625 -8.25 C 5.285156 -8.769531 4.945312 -8.9375 4.375 -8.75 L 4.328125 -8.71875 L 4.28125 -8.703125 C 4.238281 -8.679688 4.203125 -8.679688 4.171875 -8.703125 L 4.25 -8.765625 L 4.34375 -8.828125 L 4.5 -8.890625 L 4.65625 -8.921875 C 4.550781 -8.941406 4.414062 -8.925781 4.25 -8.875 C 3.832031 -8.726562 3.488281 -8.441406 3.21875 -8.015625 C 3.15625 -7.898438 3.144531 -7.757812 3.1875 -7.59375 L 3.265625 -7.390625 L 3.328125 -7.1875 C 3.671875 -5.695312 3.648438 -4.109375 3.265625 -2.421875 C 3.222656 -2.234375 3.203125 -2.078125 3.203125 -1.953125 C 3.234375 -1.460938 2.960938 -0.921875 2.390625 -0.328125 C 2.179688 -0.109375 2 0.0390625 1.84375 0.125 C 1.664062 0.226562 1.492188 0.234375 1.328125 0.140625 L 0.546875 -0.296875 C 0.335938 -0.398438 0.210938 -0.566406 0.171875 -0.796875 C 0.148438 -0.867188 0.140625 -0.972656 0.140625 -1.109375 L 0.125 -1.40625 C 0.0390625 -2.34375 0.0351562 -3.550781 0.109375 -5.03125 L 0.21875 -6.84375 C 0.25 -7.539062 0.265625 -8.144531 0.265625 -8.65625 C 0.265625 -9.082031 0.347656 -9.347656 0.515625 -9.453125 C 0.648438 -9.535156 0.984375 -9.5625 1.515625 -9.53125 C 1.835938 -9.507812 2.097656 -9.414062 2.296875 -9.25 C 2.367188 -9.175781 2.441406 -9.085938 2.515625 -8.984375 L 2.71875 -8.6875 C 2.832031 -8.519531 2.929688 -8.4375 3.015625 -8.4375 C 3.097656 -8.4375 3.203125 -8.507812 3.328125 -8.65625 C 3.640625 -9.019531 4.113281 -9.195312 4.75 -9.1875 C 5.289062 -9.1875 5.6875 -9.070312 5.9375 -8.84375 C 6.144531 -8.644531 6.316406 -8.296875 6.453125 -7.796875 C 6.734375 -6.703125 6.90625 -5.125 6.96875 -3.0625 Z M 6.96875 -3.0625 "/></g></g></g><g fill="#000000" fill-opacity="1"><g transform="translate(129.008381, 18.585764)"><g><path d="M 1.109375 -4.75 C 1.046875 -3.96875 1.367188 -3.335938 2.078125 -2.859375 C 2.347656 -2.679688 2.554688 -2.710938 2.703125 -2.953125 C 3.210938 -3.785156 3.460938 -4.570312 3.453125 -5.3125 C 3.441406 -5.726562 3.382812 -6.007812 3.28125 -6.15625 C 3.175781 -6.3125 2.9375 -6.429688 2.5625 -6.515625 C 2.257812 -6.578125 1.957031 -6.5 1.65625 -6.28125 C 1.351562 -6.0625 1.1875 -5.796875 1.15625 -5.484375 L 1.125 -5.125 Z M 5.90625 -1.65625 C 5.9375 -1.113281 5.898438 -0.519531 5.796875 0.125 C 5.742188 0.375 5.679688 0.660156 5.609375 0.984375 L 5.40625 1.828125 C 5.28125 2.359375 5.0625 2.835938 4.75 3.265625 C 4.53125 3.578125 4.1875 3.796875 3.71875 3.921875 C 3.25 4.054688 2.785156 4.054688 2.328125 3.921875 C 1.628906 3.710938 1.125 3.242188 0.8125 2.515625 C 0.550781 1.929688 0.363281 1.3125 0.25 0.65625 L 0.234375 0.609375 L 0.234375 0.53125 C 0.234375 0.488281 0.25 0.457031 0.28125 0.4375 C 0.289062 0.425781 0.320312 0.429688 0.375 0.453125 L 0.46875 0.515625 C 0.613281 0.578125 0.710938 0.71875 0.765625 0.9375 C 0.816406 1.207031 0.914062 1.492188 1.0625 1.796875 L 1.28125 2.203125 L 1.484375 2.59375 L 1.59375 2.75 C 1.832031 3.113281 2.117188 3.273438 2.453125 3.234375 C 2.578125 3.210938 2.6875 3.132812 2.78125 3 C 2.8125 2.9375 2.835938 2.863281 2.859375 2.78125 L 2.9375 2.578125 C 3.019531 2.359375 3.070312 2.078125 3.09375 1.734375 L 3.09375 1.296875 L 3.125 0.859375 L 3.3125 -1.046875 C 3.320312 -1.203125 3.25 -1.3125 3.09375 -1.375 C 1.894531 -1.789062 1.023438 -2.457031 0.484375 -3.375 C 0.160156 -3.9375 0.0703125 -4.628906 0.21875 -5.453125 C 0.375 -6.335938 0.757812 -6.96875 1.375 -7.34375 C 1.519531 -7.4375 1.675781 -7.476562 1.84375 -7.46875 L 2.640625 -7.4375 C 2.941406 -7.425781 3.203125 -7.40625 3.421875 -7.375 C 3.890625 -7.3125 4.351562 -6.992188 4.8125 -6.421875 C 5.289062 -5.828125 5.609375 -4.832031 5.765625 -3.4375 L 5.890625 -2.53125 C 5.929688 -2.175781 5.9375 -1.882812 5.90625 -1.65625 Z M 5.90625 -1.65625 "/></g></g></g><g fill="#000000" fill-opacity="1"><g transform="translate(85.267768, 37.089052)"><g><path d="M 5.90625 -8.28125 C 4.738281 -8.582031 3.660156 -8.644531 2.671875 -8.46875 C 2.390625 -8.414062 2.207031 -8.519531 2.125 -8.78125 L 2.046875 -9.0625 L 1.953125 -9.59375 L 1.84375 -10.140625 C 1.769531 -10.566406 1.671875 -10.921875 1.546875 -11.203125 C 1.472656 -11.359375 1.535156 -11.4375 1.734375 -11.4375 L 2.09375 -11.453125 L 2.46875 -11.46875 C 2.75 -11.476562 2.988281 -11.519531 3.1875 -11.59375 L 3.28125 -11.609375 L 3.359375 -11.625 C 3.421875 -11.65625 3.445312 -11.707031 3.4375 -11.78125 C 3.425781 -11.84375 3.390625 -11.878906 3.328125 -11.890625 L 3.234375 -11.921875 L 3.15625 -11.921875 L 0.546875 -12.015625 C 0.429688 -12.015625 0.3125 -11.945312 0.1875 -11.8125 C 0.0625 -11.675781 0 -11.546875 0 -11.421875 L 0.015625 -10.5 L 0.03125 -9.5625 C 0.0507812 -8.832031 0.0507812 -8.21875 0.03125 -7.71875 C 0.0078125 -7.238281 0.015625 -6.6875 0.046875 -6.0625 L 0.09375 -5.234375 L 0.15625 -4.40625 C 0.238281 -3.019531 0.222656 -1.910156 0.109375 -1.078125 C 0.0546875 -0.742188 0.195312 -0.457031 0.53125 -0.21875 C 0.851562 0.0078125 1.171875 0.0625 1.484375 -0.0625 C 2.117188 -0.320312 3.0625 -0.488281 4.3125 -0.5625 L 4.59375 -0.578125 L 4.859375 -0.59375 C 5.066406 -0.601562 5.242188 -0.644531 5.390625 -0.71875 L 5.453125 -0.75 L 5.515625 -0.796875 C 5.546875 -0.828125 5.554688 -0.863281 5.546875 -0.90625 C 5.535156 -0.957031 5.507812 -0.992188 5.46875 -1.015625 C 5.425781 -1.046875 5.382812 -1.054688 5.34375 -1.046875 C 5.1875 -1.023438 5.007812 -1.019531 4.8125 -1.03125 L 4.265625 -1.078125 C 3.816406 -1.128906 3.460938 -1.113281 3.203125 -1.03125 C 2.992188 -0.957031 2.929688 -1.03125 3.015625 -1.25 C 3.171875 -1.601562 3.234375 -1.976562 3.203125 -2.375 L 3.15625 -3.03125 L 3.125 -3.6875 L 3.109375 -4.09375 L 3.078125 -4.5 C 3.054688 -4.820312 3 -5.085938 2.90625 -5.296875 C 2.769531 -5.609375 2.671875 -5.972656 2.609375 -6.390625 L 2.546875 -6.9375 L 2.484375 -7.5 C 2.472656 -7.664062 2.546875 -7.753906 2.703125 -7.765625 C 2.890625 -7.765625 3.15625 -7.78125 3.5 -7.8125 L 3.890625 -7.84375 L 4.296875 -7.875 L 5.09375 -7.875 C 5.40625 -7.875 5.671875 -7.898438 5.890625 -7.953125 C 6.015625 -7.992188 6.082031 -8.039062 6.09375 -8.09375 C 6.101562 -8.15625 6.085938 -8.203125 6.046875 -8.234375 L 5.984375 -8.265625 Z M 5.90625 -8.28125 "/></g></g></g><g fill="#000000" fill-opacity="1"><g transform="translate(92.66434, 37.089052)"><g><path d="M 0.078125 -7.5625 C 0.0234375 -7.957031 0.0078125 -8.488281 0.03125 -9.15625 L 0.078125 -9.96875 C 0.0859375 -10.289062 0.0859375 -10.566406 0.078125 -10.796875 C 0.078125 -10.921875 0.140625 -11.007812 0.265625 -11.0625 C 0.359375 -11.113281 0.460938 -11.125 0.578125 -11.09375 C 0.984375 -11 1.296875 -10.816406 1.515625 -10.546875 C 1.816406 -10.191406 2.039062 -9.738281 2.1875 -9.1875 C 2.238281 -9 2.289062 -8.753906 2.34375 -8.453125 L 2.40625 -8.09375 L 2.484375 -7.71875 C 2.535156 -7.414062 2.582031 -7.066406 2.625 -6.671875 L 2.703125 -5.609375 C 2.722656 -5.253906 2.710938 -4.734375 2.671875 -4.046875 L 2.609375 -3.265625 C 2.597656 -2.972656 2.597656 -2.710938 2.609375 -2.484375 C 2.648438 -1.722656 2.625 -0.867188 2.53125 0.078125 C 2.507812 0.335938 2.382812 0.578125 2.15625 0.796875 C 1.925781 1.015625 1.6875 1.125 1.4375 1.125 C 1.375 1.125 1.316406 1.085938 1.265625 1.015625 C 1.078125 0.734375 0.960938 0.472656 0.921875 0.234375 L 0.78125 -0.59375 L 0.625 -1.4375 C 0.507812 -2.082031 0.425781 -2.632812 0.375 -3.09375 C 0.195312 -4.78125 0.0976562 -6.269531 0.078125 -7.5625 Z M 0.078125 -7.5625 "/></g></g></g><g fill="#000000" fill-opacity="1"><g transform="translate(96.692374, 37.089052)"><g><path d="M 1.96875 -6.59375 C 1.957031 -6.289062 1.988281 -6.085938 2.0625 -5.984375 C 2.125 -5.878906 2.285156 -5.78125 2.546875 -5.6875 L 3.046875 -5.5 C 3.234375 -5.425781 3.394531 -5.359375 3.53125 -5.296875 C 3.882812 -5.117188 4.164062 -4.910156 4.375 -4.671875 C 4.75 -4.253906 5 -3.804688 5.125 -3.328125 C 5.25 -2.773438 5.175781 -2.265625 4.90625 -1.796875 L 4.671875 -1.421875 C 4.585938 -1.273438 4.507812 -1.148438 4.4375 -1.046875 C 4.226562 -0.773438 3.992188 -0.582031 3.734375 -0.46875 C 3.566406 -0.394531 3.4375 -0.363281 3.34375 -0.375 C 2.175781 -0.476562 1.363281 -0.84375 0.90625 -1.46875 L 0.671875 -1.765625 L 0.421875 -2.078125 C 0.242188 -2.328125 0.125 -2.5625 0.0625 -2.78125 L 0.03125 -2.859375 L 0.015625 -2.9375 C 0.00390625 -2.988281 0.0195312 -3.023438 0.0625 -3.046875 C 0.09375 -3.054688 0.125 -3.039062 0.15625 -3 L 0.21875 -2.875 C 0.320312 -2.6875 0.488281 -2.519531 0.71875 -2.375 L 1.3125 -2.03125 C 1.457031 -1.945312 1.585938 -1.953125 1.703125 -2.046875 L 2.015625 -2.28125 C 2.128906 -2.375 2.226562 -2.460938 2.3125 -2.546875 C 2.507812 -2.753906 2.640625 -2.984375 2.703125 -3.234375 C 2.804688 -3.609375 2.679688 -3.898438 2.328125 -4.109375 L 2.109375 -4.234375 L 1.875 -4.359375 C 1.707031 -4.453125 1.570312 -4.539062 1.46875 -4.625 C 0.613281 -5.332031 0.175781 -6.0625 0.15625 -6.8125 C 0.15625 -7.113281 0.253906 -7.410156 0.453125 -7.703125 C 0.660156 -8.015625 0.910156 -8.191406 1.203125 -8.234375 L 1.4375 -8.296875 L 1.6875 -8.375 C 1.882812 -8.4375 2.050781 -8.457031 2.1875 -8.4375 C 2.707031 -8.394531 3.117188 -8.207031 3.421875 -7.875 C 3.734375 -7.53125 3.882812 -7.085938 3.875 -6.546875 C 3.875 -6.492188 3.867188 -6.453125 3.859375 -6.421875 C 3.835938 -6.378906 3.804688 -6.351562 3.765625 -6.34375 C 3.710938 -6.332031 3.675781 -6.34375 3.65625 -6.375 L 3.609375 -6.421875 L 3.578125 -6.46875 L 3.359375 -6.921875 C 3.273438 -7.097656 3.203125 -7.238281 3.140625 -7.34375 C 2.960938 -7.644531 2.800781 -7.796875 2.65625 -7.796875 C 2.519531 -7.796875 2.363281 -7.644531 2.1875 -7.34375 L 2.09375 -7.15625 L 2.015625 -6.96875 C 1.953125 -6.832031 1.9375 -6.707031 1.96875 -6.59375 Z M 1.96875 -6.59375 "/></g></g></g><g fill="#000000" fill-opacity="1"><g transform="translate(103.468254, 37.089052)"><g><path d="M 2.796875 -5.640625 C 2.835938 -5.773438 2.882812 -5.941406 2.9375 -6.140625 L 3.0625 -6.65625 C 3.15625 -7.0625 3.289062 -7.378906 3.46875 -7.609375 L 3.5 -7.65625 L 3.5 -7.6875 C 3.539062 -8.070312 3.695312 -8.28125 3.96875 -8.3125 C 4.132812 -8.332031 4.320312 -8.265625 4.53125 -8.109375 C 4.726562 -7.953125 4.851562 -7.789062 4.90625 -7.625 L 4.953125 -7.46875 L 5 -7.296875 C 5.03125 -7.160156 5.039062 -7.03125 5.03125 -6.90625 C 4.882812 -6.425781 4.5625 -6.050781 4.0625 -5.78125 C 3.914062 -5.695312 3.738281 -5.632812 3.53125 -5.59375 L 3.25 -5.53125 L 2.96875 -5.5 C 2.894531 -5.476562 2.84375 -5.476562 2.8125 -5.5 C 2.769531 -5.519531 2.765625 -5.566406 2.796875 -5.640625 Z M 7.34375 -4.09375 C 7.269531 -4.144531 7.203125 -4.148438 7.140625 -4.109375 L 7.0625 -4.03125 L 6.984375 -3.9375 L 6.359375 -3.21875 C 6.109375 -2.945312 5.863281 -2.738281 5.625 -2.59375 L 5.359375 -2.4375 L 5.09375 -2.296875 C 4.875 -2.191406 4.675781 -2.164062 4.5 -2.21875 C 4.03125 -2.351562 3.613281 -2.660156 3.25 -3.140625 C 2.894531 -3.609375 2.707031 -4.09375 2.6875 -4.59375 C 2.664062 -4.925781 2.789062 -5.097656 3.0625 -5.109375 C 4.019531 -5.140625 4.851562 -5.46875 5.5625 -6.09375 C 5.832031 -6.34375 6.003906 -6.644531 6.078125 -7 C 6.148438 -7.351562 6.101562 -7.644531 5.9375 -7.875 C 5.382812 -8.59375 4.726562 -8.972656 3.96875 -9.015625 L 3.875 -9.03125 L 3.796875 -9.046875 L 3.671875 -9.0625 L 3.046875 -9.09375 C 2.804688 -9.082031 2.609375 -9.003906 2.453125 -8.859375 C 2.160156 -8.578125 1.859375 -8.195312 1.546875 -7.71875 C 0.515625 -6.195312 0.0820312 -4.84375 0.25 -3.65625 C 0.445312 -2.195312 0.976562 -1.15625 1.84375 -0.53125 C 2.375 -0.144531 2.953125 0.03125 3.578125 0 C 4.191406 -0.03125 4.691406 -0.253906 5.078125 -0.671875 C 5.992188 -1.640625 6.726562 -2.660156 7.28125 -3.734375 L 7.34375 -3.8125 L 7.421875 -3.890625 C 7.460938 -3.953125 7.4375 -4.019531 7.34375 -4.09375 Z M 7.34375 -4.09375 "/></g></g></g><g clip-path="url(#87aaa0a946)"><g clip-path="url(#86b6c8c483)"><g clip-path="url(#f9b16ef897)"><g transform="matrix(1, 0, 0, 1, 4, 3)"><g clip-path="url(#e133c7b2bb)"><g clip-path="url(#1f7c409822)"><g clip-path="url(#cb421163bc)"><g clip-path="url(#321aebe184)"><path fill="#fdf9f7" d="M 5.628906 -3.589844 L 51.089844 6.460938 L 41.039062 51.917969 L -4.421875 41.867188 Z M 5.628906 -3.589844 " fill-opacity="1" fill-rule="nonzero"/></g></g></g></g></g></g></g></g><g clip-path="url(#44bd02669d)"><g clip-path="url(#a7c7f4b6f9)"><g clip-path="url(#b0cc3e5dab)"><path fill="#0b0019" d="M 49.066406 25.46875 C 49.257812 29.195312 48.460938 32.722656 46.898438 36.089844 C 46.0625 37.890625 44.980469 39.546875 43.707031 41.082031 C 41.734375 43.453125 39.394531 45.359375 36.671875 46.796875 C 34.699219 47.835938 32.617188 48.574219 30.425781 48.953125 C 29.207031 49.164062 27.96875 49.371094 26.722656 49.304688 C 25.882812 49.257812 25.039062 49.246094 24.195312 49.167969 C 21.84375 48.960938 19.640625 48.289062 17.519531 47.304688 C 15.941406 46.574219 14.507812 45.617188 13.164062 44.519531 C 12.273438 43.796875 11.480469 42.980469 10.734375 42.117188 C 10.527344 41.875 10.503906 41.585938 10.691406 41.4375 C 10.933594 41.246094 11.164062 41.304688 11.363281 41.519531 C 11.773438 41.957031 12.171875 42.398438 12.605469 42.820312 C 15.015625 45.167969 17.84375 46.792969 21.085938 47.695312 C 22.351562 48.046875 23.636719 48.277344 24.953125 48.359375 C 25.640625 48.402344 26.332031 48.453125 27.019531 48.453125 C 27.75 48.453125 28.484375 48.347656 29.214844 48.253906 C 30.632812 48.066406 32.023438 47.746094 33.371094 47.265625 C 35.65625 46.457031 37.761719 45.3125 39.667969 43.796875 C 40.773438 42.917969 41.808594 41.972656 42.726562 40.902344 C 44.417969 38.941406 45.742188 36.753906 46.6875 34.339844 C 47.253906 32.898438 47.664062 31.414062 47.921875 29.886719 C 48.023438 29.269531 48.074219 28.648438 48.148438 28.027344 C 48.332031 26.464844 48.292969 24.898438 48.058594 23.359375 C 47.734375 21.207031 47.132812 19.121094 46.171875 17.148438 C 45.417969 15.605469 44.507812 14.171875 43.398438 12.863281 C 42.09375 11.328125 40.59375 10.015625 38.882812 8.9375 C 36.660156 7.535156 34.265625 6.609375 31.679688 6.15625 C 29.964844 5.851562 28.234375 5.730469 26.503906 5.894531 C 23.363281 6.199219 20.394531 7.105469 17.652344 8.699219 C 15.871094 9.734375 14.265625 10.992188 12.824219 12.472656 C 10.789062 14.554688 9.25 16.949219 8.132812 19.625 C 7.320312 21.570312 6.808594 23.601562 6.59375 25.695312 C 6.492188 26.6875 6.4375 27.691406 6.480469 28.6875 C 6.582031 31.058594 6.996094 33.371094 7.863281 35.589844 C 7.917969 35.730469 7.984375 35.867188 8.015625 36.011719 C 8.0625 36.199219 8.042969 36.414062 7.832031 36.46875 C 7.632812 36.515625 7.382812 36.644531 7.230469 36.339844 C 6.996094 35.859375 6.820312 35.359375 6.660156 34.855469 C 6.269531 33.59375 5.9375 32.316406 5.792969 31 C 5.636719 29.617188 5.527344 28.222656 5.613281 26.839844 C 5.855469 22.738281 7.074219 18.9375 9.296875 15.476562 C 10.214844 14.042969 11.277344 12.71875 12.488281 11.535156 C 14.714844 9.359375 17.253906 7.660156 20.160156 6.515625 C 21.546875 5.96875 22.972656 5.5625 24.433594 5.285156 C 25.964844 4.992188 27.527344 4.914062 29.078125 4.972656 C 31.828125 5.074219 34.476562 5.71875 36.980469 6.882812 C 38.625 7.648438 40.148438 8.613281 41.542969 9.785156 C 44.945312 12.652344 47.183594 16.253906 48.359375 20.527344 C 48.582031 21.335938 48.730469 22.167969 48.882812 22.992188 C 49.03125 23.808594 49.03125 24.640625 49.066406 25.46875 Z M 49.066406 25.46875 " fill-opacity="1" fill-rule="nonzero"/></g></g></g><g clip-path="url(#d55d6a8ed0)"><g clip-path="url(#0b697cd42d)"><g clip-path="url(#0c177461f3)"><g transform="matrix(1, 0, 0, 1, 6, 6)"><g clip-path="url(#627764cb08)"><g clip-path="url(#d7c9c62af3)"><g clip-path="url(#12c71041ea)"><g clip-path="url(#9bf23034d9)"><path fill="#ffcc00" d="M -1.523438 39.148438 L 3.34375 -1.703125 L 44.195312 3.164062 L 39.328125 44.019531 Z M -1.523438 39.148438 " fill-opacity="1" fill-rule="nonzero"/></g></g></g></g></g></g></g></g></svg>